<svg width="34" height="18" xmlns="http://www.w3.org/2000/svg"><g fill-rule="nonzero" fill="none"><path d="M2 0h12v2H2V0zM1 2h2v2H1V2zM0 4h2v10H0V4zm1 10h2v2H1v-2zm1 2h1v2H2v-2z" fill="#FFF"/><path d="M15 18H3v-2h12v2zm1-2h-2v-2h2v2zm1-2h-2V4h2v10zM16 4h-2V2h2v2zm-1-2h-1V0h1v2z" fill="#000"/><g><path d="M32 18H20v-2h12v2zm1-2h-2v-2h2v2zm1-2h-2V4h2v10zM33 4h-2V2h2v2zm-1-2h-1V0h1v2z" fill="#FFF"/><path d="M19 0h12v2H19V0zm-1 2h2v2h-2V2zm-1 2h2v10h-2V4zm1 10h2v2h-2v-2zm1 2h1v2h-1v-2z" fill="#000"/><path d="M21 6h1v6h-1V6zm1-2h7v10h-7V4zm7 2h1v6h-1V6z" fill="#6080B0"/></g></g></svg>
