<?xml version="1.0" encoding="UTF-8"?>
<svg width="46px" height="22px" viewBox="0 0 46 22" version="1.1" xmlns="http://www.w3.org/2000/svg" xmlns:xlink="http://www.w3.org/1999/xlink">
    <!-- Generator: Sketch 48.2 (47327) - http://www.bohemiancoding.com/sketch -->
    <title>zoom</title>
    <desc>Created with Sketch.</desc>
    <defs></defs>
    <g id="Page-1" stroke="none" stroke-width="1" fill="none" fill-rule="evenodd">
        <g id="zoom" fill-rule="nonzero">
            <g id="selected" transform="translate(23.000000, 0.000000)">
                <path d="M0,0 L23,0 L23,2 L0,2 L0,0 Z M0,2 L1,2 L1,20 L0,20 L0,2 Z M17,16 L17,6 L18,6 L18,18 L6,18 L6,16 L17,16 Z M5,4 L18,4 L18,6 L5,6 L5,4 Z M10,6 L12,6 L12,12 L10,12 L10,6 Z M5,6 L7,6 L7,12 L5,12 L5,6 Z M7,10 L10,10 L10,12 L7,12 L7,10 Z M5,12 L6,12 L6,18 L5,18 L5,12 Z" id="Shape" fill="#000000"></path>
                <path d="M22,2 L23,2 L23,22 L22,22 L22,2 Z M0,20 L22,20 L22,22 L0,22 L0,20 Z M12,6 L17,6 L17,16 L12,16 L12,6 Z M6,12 L12,12 L12,16 L6,16 L6,12 Z" id="Shape" fill="#FFFFFF"></path>
            </g>
            <g id="unselected">
                <path d="M0,0 L23,0 L23,2 L0,2 L0,0 Z M0,2 L1,2 L1,20 L0,20 L0,2 Z M7,6 L10,6 L10,10 L7,10 L7,6 Z" id="Shape" fill="#FFFFFF"></path>
                <path d="M17,16 L17,6 L18,6 L18,18 L6,18 L6,16 L17,16 Z M5,4 L18,4 L18,6 L5,6 L5,4 Z M10,6 L12,6 L12,12 L10,12 L10,6 Z M5,6 L7,6 L7,12 L5,12 L5,6 Z M7,10 L10,10 L10,12 L7,12 L7,10 Z M5,12 L6,12 L6,18 L5,18 L5,12 Z M22,2 L23,2 L23,22 L22,22 L22,2 Z M0,20 L22,20 L22,22 L0,22 L0,20 Z" id="Shape" fill="#000000"></path>
            </g>
        </g>
    </g>
</svg>