<svg xmlns="http://www.w3.org/2000/svg"><symbol id="i-checked" viewBox="0 0 22 18"><title>checked</title><g fill="none" fill-rule="evenodd"><path d="M0 0h22v18H0z"/><path d="M5 8h3v2H5V8zm1 2h3v2H6v-2zm1 2h5v2H7v-2zm1 2h3v2H8v-2zm3-4h2v2h-2v-2zm1-2h2v2h-2V8zm1-2h2v2h-2V6zm1-2h2v2h-2V4zm1-2h3v2h-3V2z" fill="#000"/></g></symbol><symbol id="i-clock" viewBox="0 0 32 32"><title>clock</title><g fill="none" fill-rule="evenodd"><path d="M2 16h2v6H2v-6zm2-4h2v14H4V12zm2-2h4v18H6V10zm4-2h10v22H10V8zm10 2h4v18h-4V10zm4 2h2v14h-2V12zm2 4h2v6h-2v-6z" fill="#EEC"/><path d="M18 6V4h-2v2h-2v2h8V6h-4zm-6-6h2v8h-2V0zm2 0h6v4h-6V0zm6 8h6v2h-6V8zm4 2h4v2h-4v-2zm2 2h4v4h-4v-4zm2 4h4v6h-4v-6zm-2 6h4v4h-4v-4zm-2 4h4v2h-4v-2zm-4 2h6v2h-6v-2zm-10 2h12v2H10v-2zm-4-2h4v2H6v-2zm-2-2h2v2H4v-2zm-2-4h2v4H2v-4zm-2-6h2v6H0v-6zm2-4h2v4H2v-4zm2-2h2v2H4v-2zm2-2h4v2H6V8zm4-2h2v2h-2V6zm0-4h2v2h-2V2z" fill="#000"/><path d="M16 16h2v2h-2v-2zm2-2h2v2h-2v-2zm2-2h2v2h-2v-2zm2-2h2v2h-2v-2z" fill="#E44"/><path d="M10 0h2v2h-2V0zm4 4h2v2h-2V4z" fill="#EEC"/><path fill="#000" d="M14 18h2v2h-2z"/></g></symbol><symbol id="i-close-active" viewBox="0 0 19 22"><title>close-active</title><g fill="none" fill-rule="evenodd"><path fill="#000" d="M7 6h5v10H7z"/><path fill="#AAA" d="M8 8h3v6H8z"/><path d="M0 0h19v2H0V0zm0 2h1v18H0V2z" fill="#000"/><path d="M0 20h19v2H0v-2zM18 2h1v18h-1V2z" fill="#FFF"/></g></symbol><symbol id="i-close" viewBox="0 0 17 18"><title>close</title><path d="M6 4h5v10H6z"/><path fill="#FFF" d="M7 6h3v6H7z"/></symbol><symbol id="i-cursor" viewBox="0 0 22 22"><title>cursor</title><g fill="none" fill-rule="evenodd"><path d="M2 0h2v2H2V0zm2 2h4v2H4V2zm4 2h4v2H8V4zm4 2h4v2h-4V6zm4 2h4v2h-4V8zm-2 4h2v2h-2v-2zm2 2h2v2h-2v-2zm2 2h2v2h-2v-2zm2 2h2v2h-2v-2z" fill="#EEC"/><path d="M0 0h2v2H0V0zm2 2h2v2H2V2zm2 2h4v4H4V4zm2 4h6v4H6V8zm2 4h4v4H8v-4zm2 4h2v4h-2v-4zM8 6h4v2H8V6zm4 2h4v4h-4V8zm4 2h4v2h-4v-2zm-4 2h2v2h-2v-2zm2 2h2v2h-2v-2zm2 2h2v2h-2v-2zm2 2h2v2h-2v-2zm2 2h2v2h-2v-2z" fill="#E44"/><path d="M0 2h2v2H0V2zm2 2h2v4H2V4zm2 4h2v4H4V8zm2 4h2v4H6v-4zm2 4h2v4H8v-4zm4-2h2v2h-2v-2zm2 2h2v2h-2v-2zm2 2h2v2h-2v-2zm2 2h2v2h-2v-2z" fill="#000"/></g></symbol><symbol id="i-depth" viewBox="0 0 21 18"><title>depth</title><g fill="none" fill-rule="evenodd"><path d="M0 0h21v18H0z"/><path fill="#AAA" d="M4 4h9v6H4z"/><path d="M7 6h11v2H7V6zm10 2h1v8h-1V8zM7 14h10v2H7v-2zm0-6h1v6H7V8zm-4 2h4v2H3v-2zm0-8h1v8H3V2zm1 0h10v2H4V2zm9 2h1v2h-1V4z" fill="#000"/><path fill="#FFF" d="M8 8h9v6H8z"/></g></symbol><symbol id="i-disk-active" viewBox="0 0 43 46"><title>disk-active</title><g fill="none" fill-rule="evenodd"><path fill="#AAA" d="M0 0h43v46H0z"/><path d="M4 8h35v32H4V8zm1-2h32v2H5V6z" fill="#FFF"/><path fill="#68B" d="M37 6h2v2h-2z"/><path d="M12 6h18v10H12V6zm1 10h16v2H13v-2z" fill="#000"/><path fill="#FFF" d="M24 7h3v8h-3z"/><path d="M8 24h27v16H8V24zm1-2h25v2H9v-2z" fill="#000"/><path fill="#68B" d="M5 37h2v2H5zM4 6h1v2H4z"/><path d="M15 32h2v2h-2v-2zm1 2h2v2h-2v-2zm1 2h2v2h-2v-2zm1-4h2v2h-2v-2zm1 2h2v2h-2v-2zm1 2h2v2h-2v-2zm1-2h2v2h-2v-2zm1-2h2v2h-2v-2zm1-2h2v2h-2v-2zm1-2h2v2h-2v-2zm1-2h2v2h-2v-2zm-2 10h2v2h-2v-2zm1-2h2v2h-2v-2zm1-2h2v2h-2v-2zm1-2h2v2h-2v-2zm1-2h2v2h-2v-2zm1-2h2v2h-2v-2z" fill="#FFF"/><path d="M42.5 46h.5V2h-1v42H1v2h41.5z" fill="#FFF"/><path d="M0 0h43v2H0V0zm0 2h1v44H0V2z" fill="#000"/></g></symbol><symbol id="i-disk-drive" viewBox="0 0 156 38"><title>disk-drive</title><g fill="none" fill-rule="evenodd"><path fill="#E0A080" d="M0 0h156v38H0z"/><path fill="#000" d="M25 28h8v2h-8zM8 6h140v8H8z"/><path d="M118 22h1v8h-1v-8zm1 0h24v2h-24v-2zm23 2h1v2h-1v-2z" fill="#AD7967"/></g></symbol><symbol id="i-disk" viewBox="0 0 43 46"><title>disk</title><g fill="none" fill-rule="evenodd"><path fill="#AAA" d="M0 0h43v46H0z"/><path d="M4 8h35v32H4V8zm1-2h32v2H5V6z" fill="#000"/><path d="M12 6h18v10H12V6zm1 10h16v2H13v-2z" fill="#FFF"/><path fill="#000" d="M24 7h3v8h-3z"/><path d="M8 24h27v16H8V24zm1-2h25v2H9v-2z" fill="#FFF"/><path fill="#AAA" d="M5 37h2v2H5z"/><path d="M15 32h2v2h-2v-2zm1 2h2v2h-2v-2zm1 2h2v2h-2v-2zm1-4h2v2h-2v-2zm1 2h2v2h-2v-2zm1 2h2v2h-2v-2zm1-2h2v2h-2v-2zm1-2h2v2h-2v-2zm1-2h2v2h-2v-2zm1-2h2v2h-2v-2zm1-2h2v2h-2v-2zm-2 10h2v2h-2v-2zm1-2h2v2h-2v-2zm1-2h2v2h-2v-2zm1-2h2v2h-2v-2zm1-2h2v2h-2v-2zm1-2h2v2h-2v-2z" fill="#000"/><path d="M42.5 46h.5V2h-1v42H1v2h41.5z" fill="#000"/><path d="M0 0h43v2H0V0zm0 2h1v44H0V2z" fill="#FFF"/></g></symbol><symbol id="i-drawer-active" viewBox="0 0 65 38"><title>drawer-active</title><g fill="none" fill-rule="evenodd"><path fill="#AAA" d="M0 0h65v38H0z"/><path d="M1 2h63v34H1z"/><path fill="#000" d="M5 14h53v18H5zm52-6h1v6h-1z"/><path fill="#FFF" d="M6 16h51v14H6z"/><path fill="#000" d="M24 20h1v6h-1zm14 0h1v6h-1zm-13 6h13v2H25zm2-6h9v2h-9zm0 2h3v2h-3zm4 0h1v2h-1zm2 0h1v2h-1zm2 0h1v2h-1zm23-4h1v16h-1V18zm2 4h1v12h-1V22zM10 32h1v2h-1v-2zm2 0h1v2h-1v-2zm2 0h1v2h-1v-2zm2 0h1v2h-1v-2zm2 0h1v2h-1v-2zm2 0h1v2h-1v-2zm2 0h1v2h-1v-2zm2 0h1v2h-1v-2zm2 0h1v2h-1v-2zm2 0h1v2h-1v-2zm2 0h1v2h-1v-2zm2 0h1v2h-1v-2zm2 0h1v2h-1v-2zm2 0h1v2h-1v-2zm2 0h1v2h-1v-2zm2 0h1v2h-1v-2zm2 0h1v2h-1v-2zm2 0h1v2h-1v-2zm2 0h1v2h-1v-2zm2 0h1v2h-1v-2zm2 0h1v2h-1v-2zm2 0h1v2h-1v-2zm2 0h1v2h-1v-2zm2 0h1v2h-1v-2z"/><path fill="#FFF" d="M6 6h51v6H6z"/><path d="M8.98 10h45.04v2H8.98v-2zM8 12h47v2H8v-2zm46.02-2H55v2h-.98v-2z" fill="#D8D8D8"/><path d="M8 8h47v2H8V8zm-1 2h2v2H7v-2zm-1 2h2v2H6v-2z" fill="#000"/><path d="M9 10h47v2H9v-2zm-1 2h49v2H8v-2z" fill="#AAA"/><path d="M9 12h1v2H9v-2zm1-2h1v2h-1v-2zm1 2h1v2h-1v-2zm1-2h1v2h-1v-2zm1 2h1v2h-1v-2zm1-2h1v2h-1v-2zm1 2h1v2h-1v-2zm1-2h1v2h-1v-2zm1 2h1v2h-1v-2zm1-2h1v2h-1v-2zm1 2h1v2h-1v-2zm1-2h1v2h-1v-2zm1 2h1v2h-1v-2zm1-2h1v2h-1v-2zm1 2h1v2h-1v-2zm1-2h1v2h-1v-2zm1 2h1v2h-1v-2zm1-2h1v2h-1v-2zm1 2h1v2h-1v-2zm1-2h1v2h-1v-2zm1 2h1v2h-1v-2zm1-2h1v2h-1v-2zm1 2h1v2h-1v-2zm1-2h1v2h-1v-2zm1 2h1v2h-1v-2zm1-2h1v2h-1v-2zm1 2h1v2h-1v-2zm1-2h1v2h-1v-2zm1 2h1v2h-1v-2zm1-2h1v2h-1v-2zm1 2h1v2h-1v-2zm1-2h1v2h-1v-2zm1 2h1v2h-1v-2zm1-2h1v2h-1v-2zm1 2h1v2h-1v-2zm1-2h1v2h-1v-2zm1 2h1v2h-1v-2zm1-2h1v2h-1v-2zm1 2h1v2h-1v-2zm1-2h1v2h-1v-2zm1 2h1v2h-1v-2zm1-2h1v2h-1v-2zm1 2h1v2h-1v-2zm1-2h1v2h-1v-2zm1 2h1v2h-1v-2zm2 0h1v2h-1v-2zm-1-2h1v2h-1v-2z" fill="#6687BA"/><path d="M56 12h1v2h-1v-2zm-1-2h1v2h-1v-2zM0 0h65v2H0V0zm0 2h1v36H0V2z" fill="#000"/><path d="M1 36h63v2H1v-2zM64 2h1v36h-1V2z" fill="#FFF"/></g></symbol><symbol id="i-drawer" viewBox="0 0 65 38"><title>drawer</title><g fill="none" fill-rule="evenodd"><path fill="#AAA" d="M0 0h65v38H0z"/><path d="M0 2h1v36H0V2zm0-2h65v2H0V0zm6 6h51v22H6z" fill="#FFF"/><path fill="#000" d="M27 14h3v4h-3zm3 0h6v2h-6zm1 2h1v2h-1zm2 0h1v2h-1zm2 0h1v2h-1zm3-2h1v6h-1zm-14 0h1v6h-1zm1 6h13v2H25zm-14 4h44v2H11zm43-12h1v12h-1zM8 8h47v2H8V8zm0 2h2v2H8v-2zm0 2h1v14H8V12zm49-4h1v22h-1z"/><path fill="#000" d="M8 28h50v2H8z"/><path d="M64.5 38h.5V2h-1v34H1v2h63.5z" fill="#000"/></g></symbol><symbol id="i-drive-active" viewBox="0 0 85 44"><path fill="#AAA" fill-rule="evenodd" d="M0 0h85v44H0z"/><path d="M74 9h7v28H10v-4H5V5h69v4zM4 7h1v24H4V7zm70 0h1v2h-1V7z" fill-rule="evenodd"/><path fill="#FFF" fill-rule="evenodd" d="M5 7h69v24H5z"/><path d="M62.5 25h.5V11h-1v12H11v2h51.5zM8 9h2v2H8V9zm0 2h1v18H8V11zm1 16h60v2H9v-2zM67 9h2v2h-2V9zm1 2h1v16h-1V11zm-7-2h2v2h-2V9zM11 9h1v14h-1V9zm1 0h1v2h-1V9z" fill="#AAA" fill-rule="evenodd"/><path d="M43 15h4v2h-4v-2zm1 2h4v2h-4v-2zm1 2h6v2h-6v-2zm4-2h3v2h-3v-2zm-1-2h5v2h-5v-2zm2-2h4v2h-4v-2zm1-2h4v2h-4v-2zm5 0h1v2h-1v-2zm-1 2h1v2h-1v-2zm-1 2h1v2h-1v-2zm-1 2h1v2h-1v-2zm-1 2h1v2h-1v-2zm-36-8h5v2h-5v-2zm0 4h5v2h-5v-2zm2 2h1v2h-1v-2zm-3 0h1v2h-1v-2zm0-4h1v2h-1v-2zm0-4h1v2h-1V9zm3 0h1v2h-1V9zm3 0h1v2h-1V9zm0 4h1v2h-1v-2zm0 4h1v2h-1v-2z" fill-rule="evenodd"/><path fill="#6687BA" fill-rule="evenodd" d="M16 13h5v2h-5z"/><g fill="none" fill-rule="evenodd"><path d="M0 0h85v2H0V0zm0 2h1v40H0V2z" fill="#000"/><path d="M0 42h85v2H0v-2zM84 2h1v40h-1V2z" fill="#FFF"/></g></symbol><symbol id="i-drive" viewBox="0 0 85 44"><path fill="#AAA" fill-rule="evenodd" d="M0 0h84v44H0z"/><g fill="none" fill-rule="evenodd"><path d="M63.5 26h.5V12h-1v12H12v2h51.5zM9 10h2v2H9v-2zm0 2h1v18H9V12zm1 16h60v2H10v-2zm58-18h2v2h-2v-2zm1 2h1v16h-1V12zm-7-2h2v2h-2v-2zm-50 0h1v14h-1V10zm1 0h1v2h-1v-2z" fill="#AAA"/><path d="M75 10V8H6v2H5v24h1v2h69v-2h1V10h-1z" fill="#000"/><path fill="#FFF" d="M6 10h69v24H6z"/><path fill="#000" d="M17 16h5v2h-5zm28 2h1v2h-1v-2zm1 2h1v2h-1v-2zm1 2h1v2h-1v-2zm0-4h1v2h-1v-2zm1 2h1v2h-1v-2zm1 2h1v2h-1v-2zm0-4h1v2h-1v-2zm1 2h1v2h-1v-2zm1 2h1v2h-1v-2zm0-4h1v2h-1v-2zm1 2h1v2h-1v-2zm1 2h1v2h-1v-2zm-1-6h1v2h-1v-2zm1 2h1v2h-1v-2zm1 2h1v2h-1v-2zm-1-6h1v2h-1v-2zm1 2h1v2h-1v-2zm1 2h1v2h-1v-2zm0-4h1v2h-1v-2zm2 0h1v2h-1v-2zm-1 2h1v2h-1v-2z"/><path d="M63.5 28h.5V14h-1v12H12v2h51.5zM9 12h2v2H9v-2zm0 2h1v18H9V14zm1 16h60v2H10v-2zm58-18h2v2h-2v-2zm1 2h1v16h-1V14zm-7-2h2v2h-2v-2zm-50 0h1v14h-1V12zm1 0h1v2h-1v-2z" fill="#AAA"/></g><path d="M0 0h85v2H0V0zm0 2h1v40H0V2z" fill="#FFF" fill-rule="evenodd"/><path d="M0 42h85v2H0v-2zM84 0h1v42h-1V0z" fill-rule="evenodd"/></symbol><symbol id="i-floppy-disk" viewBox="0 0 134 120"><title>floppy-disc</title><g fill="none" fill-rule="evenodd"><path d="M102 41h32v1h-32v-1zm20 13h12v66h-12V54zM4 0h10v2H4V0zM2 2h12v2H2V2zM0 4h14v116H0V4zm14 36h2v14h-2V40zm2 2h118v10H16V42zm104 10h14v2h-14v-2zM104 2h2v39h-2V2zm2-2h20v41h-20V0zm20 2h2v39h-2V2zm2 2h2v37h-2V4zm2 2h2v35h-2V6zm2 2h2v33h-2V8z" fill="#203080"/><path d="M16 40h18v2H16v-2zm18 1h2v1h-2v-1zM14 2h20v38H14V2zm4-2h16v2H18V0zm-4 54h108v66H14V54zm2-2h104v2H16v-2zM4 110h6v4H4z" fill="#202060"/><path d="M102 41h2V0H34v41h2v1h66v-1z" fill="#948976"/><path fill="#202060" d="M75 8h14v30H75z"/><path d="M16 58h104v62H16V58zm2-4h100v4H18v-4z" fill="#FFF"/><path d="M6 12h2v4H6v-4zm-2-2h6v2H4v-2zm1-2h4v2H5V8zm1-2h2v2H6V6z" fill="#202060"/></g></symbol><symbol id="i-folder-active" viewBox="0 0 63 34"><title>folder-active</title><g fill="none" fill-rule="evenodd"><path fill="#000" d="M2 12h53v18H2zm52-6h1v6h-1z"/><path fill="#FFF" d="M3 14h51v14H3z"/><path fill="#000" d="M21 18h1v6h-1zm14 0h1v6h-1zm-13 6h13v2H22zm2-6h9v2h-9zm0 2h3v2h-3zm4 0h1v2h-1zm2 0h1v2h-1zm2 0h1v2h-1zm23-4h1v16h-1V16zm2 4h1v12h-1V20zM7 30h1v2H7v-2zm2 0h1v2H9v-2zm2 0h1v2h-1v-2zm2 0h1v2h-1v-2zm2 0h1v2h-1v-2zm2 0h1v2h-1v-2zm2 0h1v2h-1v-2zm2 0h1v2h-1v-2zm2 0h1v2h-1v-2zm2 0h1v2h-1v-2zm2 0h1v2h-1v-2zm2 0h1v2h-1v-2zm2 0h1v2h-1v-2zm2 0h1v2h-1v-2zm2 0h1v2h-1v-2zm2 0h1v2h-1v-2zm2 0h1v2h-1v-2zm2 0h1v2h-1v-2zm2 0h1v2h-1v-2zm2 0h1v2h-1v-2zm2 0h1v2h-1v-2zm2 0h1v2h-1v-2zm2 0h1v2h-1v-2zm2 0h1v2h-1v-2z"/><path fill="#FFF" d="M3 4h51v6H3z"/><path d="M5.98 8h45.04v2H5.98V8zM5 10h47v2H5v-2zm46.02-2H52v2h-.98V8z" fill="#D8D8D8"/><path d="M5 6h47v2H5V6zM4 8h2v2H4V8zm-1 2h2v2H3v-2z" fill="#000"/><path d="M6 10h1v2H6v-2zm1-2h1v2H7V8zm1 2h1v2H8v-2zm1-2h1v2H9V8zm1 2h1v2h-1v-2zm1-2h1v2h-1V8zm1 2h1v2h-1v-2zm1-2h1v2h-1V8zm1 2h1v2h-1v-2zm1-2h1v2h-1V8zm1 2h1v2h-1v-2zm1-2h1v2h-1V8zm1 2h1v2h-1v-2zm1-2h1v2h-1V8zm1 2h1v2h-1v-2zm1-2h1v2h-1V8zm1 2h1v2h-1v-2zm1-2h1v2h-1V8zm1 2h1v2h-1v-2zm1-2h1v2h-1V8zm1 2h1v2h-1v-2zm1-2h1v2h-1V8zm1 2h1v2h-1v-2zm1-2h1v2h-1V8zm1 2h1v2h-1v-2zm1-2h1v2h-1V8zm1 2h1v2h-1v-2zm1-2h1v2h-1V8zm1 2h1v2h-1v-2zm1-2h1v2h-1V8zm1 2h1v2h-1v-2zm1-2h1v2h-1V8zm1 2h1v2h-1v-2zm1-2h1v2h-1V8zm1 2h1v2h-1v-2zm1-2h1v2h-1V8zm1 2h1v2h-1v-2zm1-2h1v2h-1V8zm1 2h1v2h-1v-2zm1-2h1v2h-1V8zm1 2h1v2h-1v-2zm1-2h1v2h-1V8zm1 2h1v2h-1v-2zm1-2h1v2h-1V8zm1 2h1v2h-1v-2zm2 0h1v2h-1v-2zm-1-2h1v2h-1V8z" fill="#94ABCD"/><path fill="#000" d="M53 10h1v2h-1zm-1-2h1v2h-1z"/></g></symbol><symbol id="i-folder" viewBox="0 0 63 34"><title>folder</title><g fill="none" fill-rule="evenodd"><path fill="#000" d="M7 6h50v22H7z"/><path fill="#FFF" d="M5 4h51v22H5z"/><path d="M23 12h1v6h-1v-6zm14 0h1v6h-1v-6zm-13 6h13v2H24v-2zm2-6h3v4h-3v-4zm3 0h6v2h-6v-2zm1 2h1v2h-1v-2zm2 0h1v2h-1v-2zm2 0h1v2h-1v-2zm-24 8h44v2H10v-2zm43-12h1v12h-1V10zM7 6h47v2H7V6zm0 2h2v2H7V8zm0 2h1v14H7V10z" fill="#000"/></g></symbol><symbol id="i-resize" viewBox="0 0 16 16"><title>resize</title><g fill="none" fill-rule="evenodd"><path fill="#AAA" d="M0 0h16v16H0z"/><path d="M3 10h2v4H3v-4zm2 2h9v2H5v-2zm8-10h1v10h-1V2zm-2 0h2v2h-2V2zM9 4h2v2H9V4zM7 6h2v2H7V6zM5 8h2v2H5V8z" fill="#000"/></g></symbol><symbol id="i-right" viewBox="0 0 14 16"><title>right</title><path d="M4 10h2v2H4v-2zm2-2h2v2H6V8zm2-2h2v2H8V6zM6 4h2v2H6V4zM4 2h2v2H4V2z" fill-rule="evenodd"/></symbol><symbol id="i-scroll-left" viewBox="0 0 14 16"><title>scroll-left</title><g fill="none" fill-rule="evenodd"><path fill="#AAA" d="M0 0h14v16H0z"/><path d="M8 2h2v2H8V2zM6 4h2v2H6V4zM4 6h2v2H4V6zm2 2h2v2H6V8zm2 2h2v2H8v-2z" fill="#000"/></g></symbol><symbol id="i-scroll-right" viewBox="0 0 14 16"><title>scroll-right</title><g fill="none" fill-rule="evenodd"><path fill="#AAA" d="M0 0h14v16H0z"/><path d="M4 2h2v2H4V2zm2 2h2v2H6V4zm2 2h2v2H8V6zM6 8h2v2H6V8zm-2 2h2v2H4v-2z" fill="#000"/></g></symbol><symbol id="i-scroll-up" viewBox="0 0 16 18"><title>scroll-up</title><g fill="none" fill-rule="evenodd"><path fill="#AAA" d="M0 0h16v18H0z"/><path d="M3 10h2v2H3v-2zm2-2h2v2H5V8zm2-2h2v2H7V6zm2 2h2v2H9V8zm2 2h2v2h-2v-2z" fill="#000"/></g></symbol><symbol id="i-shell" viewBox="0 0 60 48"><title>shell</title><g fill="none" fill-rule="evenodd"><path fill="#AAA" d="M1 2h58v44H1z"/><path d="M0 0h60v2H0V0zm0 2h1v46H0V2zm4 4h51v2H4V6zm47 2h1v4h-1V8zm-5 0h1v4h-1V8zM9 8h1v4H9V8zM4 8h1v34H4V8zm45 6h1v26h-1V14z" fill="#FFF"/><path d="M59 46H1v2h59v-2h-1v1h1V2h-1v44zm-3.5-4h.5V6h-1v34H5v2h50.5zM9 20h1v2H9v-2zm5-2h2v2h-2v-2zm2 2h2v2h-2v-2zm2 2h2v2h-2v-2zm-2 2h2v2h-2v-2zm-2 2h2v2h-2v-2zM8 8h1v4H8V8zm37 0h1v4h-1V8zm5 0h1v4h-1V8zM5 12h50v2H5v-2zm1 2h1v26H6V14zm4 4h2v10h-2V18z" fill="#000"/></g></symbol><symbol id="i-sroll-down" viewBox="0 0 16 18"><title>sroll-down</title><g fill="none" fill-rule="evenodd"><path fill="#AAA" d="M0 0h16v18H0z"/><path d="M3 6h2v2H3V6zm2 2h2v2H5V8zm2 2h2v2H7v-2zm2-2h2v2H9V8zm2-2h2v2h-2V6z" fill="#000"/></g></symbol><symbol id="i-trash" viewBox="0 0 71 70"><title>trash</title><g fill="none" fill-rule="evenodd"><path fill="#AAA" d="M1 2h70v68H1z"/><path d="M70.5 70h.5V2h-1v66H1v2h69.5zM25 56v-2h-1v2h-1v2h3v-2h-1zm-1 6h34v2H24v-2zm-7-46h37v2H17v-2zm11-2h3v2h-3v-2zm2-2h9v2h-9v-2zm8 2h3v2h-3v-2zm-22 4h2v2h-2v-2zm-1 2h2v4h-2v-4zm2 2h39v2H17v-2zm36-2h3v2h-3v-2zm-1-2h3v2h-3v-2zm1 6h2v14h-2V24zm-37 0h2v12h-2V24zm1 12h2v14h-2V36zm1 14h2v8h-2v-8zm0 8h3v2h-3v-2zm1 2h44v2H19v-2zm30-2h14v2H49v-2zm1-2h7v2h-7v-2zm1-10h2v10h-2V46zm1-14h1v14h-1V32zm1 6h1v12h-1V38zM40 18h1v2h-1v-2zm2 0h1v2h-1v-2zm2 0h1v2h-1v-2zm2 0h1v2h-1v-2zm-1 2h1v2h-1v-2zm2 0h1v2h-1v-2zm1-2h1v2h-1v-2zm1 2h1v2h-1v-2zm1-2h1v2h-1v-2zm1 2h1v2h-1v-2zm-1 4h3v2h-3v-2zm1 2h1v6h-1v-6zm1 2h1v2h-1v-2zm-3 2h2v8h-2v-8zm-1 2h1v6h-1v-6zm0 6h2v6h-2v-6zm-1 4h1v2h-1v-2zm0 2h2v6h-2v-6zm0 6h1v6h-1v-6zm-1 2h1v6h-1v-6zm1 6h1v2h-1v-2zm1-2h1v2h-1v-2zm1-2h1v2h-1v-2zm1-2h1v2h-1v-2zm-2 0h1v2h-1v-2zm1-2h1v2h-1v-2zm1-2h1v2h-1v-2zm-1-2h1v2h-1v-2zm1-2h1v2h-1v-2zm1-2h1v2h-1v-2zm-1-2h1v2h-1v-2zm1-2h1v2h-1v-2zm0-4h1v2h-1v-2zM36 24h1v2h-1v-2zm2 0h1v2h-1v-2zm2 0h1v2h-1v-2zm2 0h1v2h-1v-2zm2 0h1v2h-1v-2zm2 0h1v2h-1v-2zm2 0h1v2h-1v-2zm1 2h1v4h-1v-4zm-3 2h3v2h-3v-2zm1-2h1v2h-1v-2zm-2 0h1v2h-1v-2zm-1 2h1v2h-1v-2zm-1 2h1v2h-1v-2zm-1-2h1v2h-1v-2zm3 2h3v2h-3v-2zm0 2h2v10h-2V32zm-1 2h1v2h-1v-2zm-1 2h1v2h-1v-2zm1 2h1v2h-1v-2zm-1 2h1v2h-1v-2zm1 2h2v10h-2V42zm-1 6h1v2h-1v-2zm0-4h1v2h-1v-2zm-1 6h1v2h-1v-2zm1 2h2v4h-2v-4zm1 4h2v2h-2v-2zm1 2h1v2h-1v-2zm-2 0h1v2h-1v-2zm-2 0h1v2h-1v-2zm-2 0h1v2h-1v-2zm1-2h1v2h-1v-2zm2 0h1v2h-1v-2zM21 28h3v2h-3v-2zm-1 2h3v2h-3v-2zm0 2h2v4h-2v-4zm2 2h1v2h-1v-2zm-1 2h2v10h-2V36zm0 10h3v2h-3v-2zm1 2h2v8h-2v-8zm2-18h1v6h-1v-6zm1 4h1v14h-1V34zm0 16h2v2h-2v-2zm1-4h1v4h-1v-4zm0 6h1v2h-1v-2zm7-22h2v26h-2V30zm2 26h2v2h-2v-2zm-1-28h3v2h-3v-2zm1 2h1v2h-1v-2zm2 0h1v8h-1v-8zm-1 8h2v2h-2v-2zm1 2h1v2h-1v-2zm-1 2h2v2h-2v-2zm1 2h1v2h-1v-2zm-1 2h2v2h-2v-2zm1 2h1v2h-1v-2zm-1 2h2v2h-2v-2zm1 2h1v2h-1v-2z" fill="#000"/><path d="M18 18h22v4H18v-4zm-1 2h1v2h-1v-2zm23 0h5v2h-5v-2zm1-2h1v2h-1v-2zm2 0h1v2h-1v-2zm2 0h1v2h-1v-2zm1 2h1v2h-1v-2zm1-2h1v2h-1v-2zm1 2h1v2h-1v-2zm1-2h1v2h-1v-2zm1 2h1v2h-1v-2zm1-2h1v2h-1v-2zm1 2h1v2h-1v-2zm-34 4h2v12h-2V24zm1 12h2v14h-2V36zm2 12h1v12h-1V48zm-1 2h1v8h-1v-8zm2 6h1v4h-1v-4zm1 2h16v2H23v-2zm4-34h6v34h-6V24zm-7 0h7v4h-7v-4zm4 4h3v2h-3v-2zm1 2h2v4h-2v-4zm1 4h1v12h-1V34zm-6-6h1v2h-1v-2zm3 2h1v16h-1V30zm-1 2h1v2h-1v-2zm2 4h1v12h-1V36zm0 12h2v2h-2v-2zm0 2h1v4h-1v-4zm1 2h1v4h-1v-4zm1 2h1v4h-1v-4zm7 2h2v2h-2v-2zm4-2h3v4h-3v-4zm-2-2h2v4h-2v-4zm0-2h1v2h-1v-2zm0-2h2v2h-2v-2zm0-2h1v2h-1v-2zm0-2h2v2h-2v-2zm0-2h1v2h-1v-2zm0-2h2v2h-2v-2zm0-2h1v2h-1v-2zm0-6h2v6h-2v-6zm1-2h1v2h-1v-2zm-3-6h1v6h-1v-6zm1 0h2v4h-2v-4zm2 2h9v2h-9v-2zm1-2h1v2h-1v-2zm2 0h1v2h-1v-2zm2 0h1v2h-1v-2zm2 0h1v2h-1v-2zm2 0h1v2h-1v-2zm1 2h1v2h-1v-2zm1-2h1v2h-1v-2zm1 2h1v2h-1v-2zm1-2h1v2h-1v-2zm1 2h1v4h-1v-4zm2 0h1v2h-1v-2zm-15 2h1v2h-1v-2zm1 0h4v26h-4V28zm5 0h1v2h-1v-2zm2 0h1v2h-1v-2zm-3 2h1v20h-1V30zm1 16h1v2h-1v-2zm0-4h1v2h-1v-2zm1-2h1v2h-1v-2zm-1-2h1v2h-1v-2zm0-6h1v4h-1v-4zm1-2h1v4h-1v-4zm0 6h1v2h-1v-2zm4-6h1v2h-1v-2zm-1 2h1v10h-1V32zm-1 10h1v10h-1V42zm6-12h1v2h-1v-2zm-1 2h1v2h-1v-2zm0 4h1v2h-1v-2zm-1 2h1v2h-1v-2zm1 2h1v2h-1v-2zm-1 2h1v2h-1v-2zm-1 2h1v2h-1v-2zm2 0h1v2h-1v-2zm-1 2h1v2h-1v-2zm-1 2h1v2h-1v-2zm-1 2h1v2h-1v-2zm2 0h1v2h-1v-2zm-1 2h1v2h-1v-2zm-1 2h1v2h-1v-2zm2 0h1v2h-1v-2zm-1 2h1v2h-1v-2zm-1 2h1v2h-1v-2zm-8-4h3v2h-3v-2zm2-2h1v2h-1v-2zm1-2h1v2h-1v-2zm2 2h1v4h-1v-4zm-4 4h1v2h-1v-2zm-1 2h1v2h-1v-2zm2 0h1v2h-1v-2zm1-2h1v2h-1v-2zm1 2h1v2h-1v-2zm2 0h1v2h-1v-2zm1-2h1v2h-1v-2z" fill="#68B"/><path d="M0 0h71v2H0V0zm0 2h1v68H0V2z" fill="#FFF"/></g></symbol><symbol id="i-zoom" viewBox="0 0 21 18"><title>zoom</title><g fill="none" fill-rule="evenodd"><path d="M0 0h21v18H0z"/><path d="M4 2h13v2H4V2zm0 2h2v6H4V4zm2 4h5v2H6V8zm3-4h2v4H9V4zm7 0h1v12h-1V4zM4 14h12v2H4v-2zm0-4h1v4H4v-4z" fill="#000"/><path fill="#FFF" d="M6 4h3v4H6z"/></g></symbol></svg>
