<svg width="36" height="20" xmlns="http://www.w3.org/2000/svg"><g fill-rule="nonzero" fill="none"><path d="M0 0h17v2H0V0zm0 2h1v16H0V2z" fill="#FFF"/><path d="M4 12h2v4H4v-4zm2 2h9v2H6v-2zm8-10h1v10h-1V4zm-8 6h2v2H6v-2zm2-2h2v2H8V8zm2-2h2v2h-2V6zm2-2h2v2h-2V4zm5-4h1v20h-1V0zM0 18h17v2H0v-2z" fill="#000"/><g><path d="M18 0h17v2H18V0zm0 2h1v16h-1V2z" fill="#FFF"/><path d="M22 12h2v4h-2v-4zm2 2h9v2h-9v-2zm8-10h1v10h-1V4zm-8 6h2v2h-2v-2zm2-2h2v2h-2V8zm2-2h2v2h-2V6zm2-2h2v2h-2V4zm5-4h1v20h-1V0zM18 18h17v2H18v-2z" fill="#000"/><path d="M24 12h8v2h-8v-2zm2-2h6v2h-6v-2zm2-2h4v2h-4V8zm2-2h2v2h-2V6z" fill="#FFF"/></g></g></svg>
