<?xml version="1.0" encoding="UTF-8"?>
<!DOCTYPE svg PUBLIC "-//W3C//DTD SVG 1.1//EN" "http://www.w3.org/Graphics/SVG/1.1/DTD/svg11.dtd">
<svg xmlns="http://www.w3.org/2000/svg">
  <symbol id="i-twitter" viewBox="0 0 20 20">
    <path d="M3.822 11.302a3.49 3.49 0 0 0 1.572-.098c-1.535-.223-2.708-1.45-2.708-2.93v-.07c.47.247.997.38 1.536.386-.951-.533-1.534-1.494-1.536-2.533 0-.556.165-1.076.454-1.522 1.634 1.806 4.031 3 6.733 3.163a2.834 2.834 0 0 1-.075-.652C9.798 5.365 11.274 4 13.097 4c.952 0 1.81.372 2.411.968a5.457 5.457 0 0 0 2.048-.736 2.927 2.927 0 0 1-1.403 1.665A5.907 5.907 0 0 0 18 5.428a5.253 5.253 0 0 1-1.606 1.551l.001.067v.347c0 4.753-4.173 8.607-9.319 8.607A9.838 9.838 0 0 1 2 14.613c.26.027.523.042.791.042a7.137 7.137 0 0 0 4.123-1.287c-1.464 0-2.679-.868-3.092-2.066z" fill="currentColor" fill-rule="evenodd"/>
  </symbol>
  <symbol id="i-drawer" viewBox="0 0 65 38"><g fill="none" fill-rule="evenodd"><path fill="#AAA" d="M0 0h65v38H0z"/><path d="M0 2h1v36H0V2zm0-2h65v2H0V0zM6 6h51v22H6z" fill="#FFF"/><path fill="#000" d="M27 14h3v4h-3zM30 14h6v2h-6zM31 16h1v2h-1zM33 16h1v2h-1zM35 16h1v2h-1zM38 14h1v6h-1zM24 14h1v6h-1zM25 20h13v2H25zM11 24h44v2H11zM54 12h1v12h-1zM8 8h47v2H8V8zm0 2h2v2H8v-2zm0 2h1v14H8V12zM57 8h1v22h-1z"/><path fill="#000" d="M8 28h50v2H8z"/><path d="M64.5 38h.5V2h-1v34H1v2h63.5z" fill="#000"/></g></symbol>
  <symbol id="i-floppy-disk" viewBox="0 0 134 120" xmlns="http://www.w3.org/2000/svg"><title>floppy-disc</title><g fill="none" fill-rule="evenodd"><path d="M102 41h32v1h-32v-1zm20 13h12v66h-12V54zM4 0h10v2H4V0zM2 2h12v2H2V2zM0 4h14v116H0V4zm14 36h2v14h-2V40zm2 2h118v10H16V42zm104 10h14v2h-14v-2zM104 2h2v39h-2V2zm2-2h20v41h-20V0zm20 2h2v39h-2V2zm2 2h2v37h-2V4zm2 2h2v35h-2V6zm2 2h2v33h-2V8z" fill="#203080"/><path d="M16 40h18v2H16v-2zm18 1h2v1h-2v-1zM14 2h20v38H14V2zm4-2h16v2H18V0zm-4 54h108v66H14V54zm2-2h104v2H16v-2zM4 110h6v4H4z" fill="#202060"/><path d="M102 41h2V0H34v41h2v1h66v-1z" fill="#948976"/><path fill="#202060" d="M75 8h14v30H75z"/><path d="M16 58h104v62H16V58zm2-4h100v4H18v-4z" fill="#FFF"/><path d="M6 12h2v4H6v-4zm-2-2h6v2H4v-2zm1-2h4v2H5V8zm1-2h2v2H6V6z" fill="#202060"/></g></symbol>
  <symbol id="i-disk-drive" viewBox="0 0 156 38" xmlns="http://www.w3.org/2000/svg"><title>disk-drive</title><g fill="none" fill-rule="evenodd"><path fill="#E0A080" d="M0 0h156v38H0z"/><path fill="#000" d="M25 28h8v2h-8zM8 6h140v8H8z"/><path d="M118 22h1v8h-1v-8zm1 0h24v2h-24v-2zm23 2h1v2h-1v-2z" fill="#AD7967"/></g></symbol>
</svg>
