<?xml version="1.0" encoding="UTF-8"?>
<svg width="20px" height="22px" viewBox="0 0 20 22" version="1.1" xmlns="http://www.w3.org/2000/svg" xmlns:xlink="http://www.w3.org/1999/xlink">
    <!-- Generator: Sketch 42 (36781) - http://www.bohemiancoding.com/sketch -->
    <title>close</title>
    <desc>Created with Sketch.</desc>
    <defs></defs>
    <g id="Symbols" stroke="none" stroke-width="1" fill="none" fill-rule="evenodd">
        <g id="close">
            <g>
                <rect id="Rectangle-4" x="0" y="0" width="20" height="22"></rect>
                <path d="M19,2 L20,2 L20,20 L19,20 L19,2 Z M0,0 L20,0 L20,2 L0,2 L0,0 Z M0,2 L1,2 L1,22 L0,22 L0,2 Z" id="Combined-Shape" fill="#FFFFFF"></path>
                <path d="M1,20 L20,20 L20,22 L1,22 L1,20 Z M18,2 L19,2 L19,20 L18,20 L18,2 Z" id="Combined-Shape" fill="#000000"></path>
                <path d="M7,6 L12,6 L12,8 L7,8 L7,6 Z M7,8 L8,8 L8,16 L7,16 L7,8 Z M8,14 L12,14 L12,16 L8,16 L8,14 Z M11,8 L12,8 L12,14 L11,14 L11,8 Z" id="Combined-Shape" fill="#000000"></path>
            </g>
            <rect id="Rectangle-78" fill="#FFFFFF" x="8" y="8" width="3" height="6"></rect>
        </g>
    </g>
</svg>