<?xml version="1.0" encoding="UTF-8"?>
<svg width="23px" height="22px" viewBox="0 0 23 22" version="1.1" xmlns="http://www.w3.org/2000/svg" xmlns:xlink="http://www.w3.org/1999/xlink">
    <!-- Generator: Sketch 42 (36781) - http://www.bohemiancoding.com/sketch -->
    <title>depth</title>
    <desc>Created with Sketch.</desc>
    <defs></defs>
    <g id="Page-1" stroke="none" stroke-width="1" fill="none" fill-rule="evenodd">
        <g id="depth">
            <g>
                <path d="M0,0 L23,0 L23,2 L0,2 L0,0 Z M0,2 L1,2 L1,20 L0,20 L0,2 Z" id="Combined-Shape" fill="#FFFFFF"></path>
                <path d="M0,20 L23,20 L23,22 L0,22 L0,20 Z M22,2 L23,2 L23,20 L22,20 L22,2 Z" id="Combined-Shape" fill="#000000"></path>
                <path d="M15,8 L15,4 L4,4 L4,14 L8,14 L8,18 L19,18 L19,8 L15,8 Z" id="Combined-Shape" fill="#000000"></path>
                <rect id="Rectangle-25" fill="#FFFFFF" x="9" y="10" width="9" height="6"></rect>
                <path d="M5,6 L8,6 L8,12 L5,12 L5,6 Z M8,6 L14,6 L14,8 L8,8 L8,6 Z" id="Combined-Shape" fill="#AAAAAA"></path>
            </g>
        </g>
    </g>
</svg>