<svg width="43" height="46" viewBox="0 0 43 46" xmlns="http://www.w3.org/2000/svg"><title>disk-active</title><g fill="none" fill-rule="evenodd"><path fill="#AAA" d="M0 0h43v46H0z"/><path d="M4 8h35v32H4V8zm1-2h32v2H5V6z" fill="#FFF"/><path fill="#68B" d="M37 6h2v2h-2z"/><path d="M12 6h18v10H12V6zm1 10h16v2H13v-2z" fill="#000"/><path fill="#FFF" d="M24 7h3v8h-3z"/><path d="M8 24h27v16H8V24zm1-2h25v2H9v-2z" fill="#000"/><path fill="#68B" d="M5 37h2v2H5zM4 6h1v2H4z"/><path d="M15 32h2v2h-2v-2zm1 2h2v2h-2v-2zm1 2h2v2h-2v-2zm1-4h2v2h-2v-2zm1 2h2v2h-2v-2zm1 2h2v2h-2v-2zm1-2h2v2h-2v-2zm1-2h2v2h-2v-2zm1-2h2v2h-2v-2zm1-2h2v2h-2v-2zm1-2h2v2h-2v-2zm-2 10h2v2h-2v-2zm1-2h2v2h-2v-2zm1-2h2v2h-2v-2zm1-2h2v2h-2v-2zm1-2h2v2h-2v-2zm1-2h2v2h-2v-2z" fill="#FFF"/><path d="M42.5 46h.5V2h-1v42H1v2h41.5z" fill="#FFF"/><path d="M0 0h43v2H0V0zm0 2h1v44H0V2z" fill="#000"/></g></svg>