<svg width="65" height="38" viewBox="0 0 65 38" xmlns="http://www.w3.org/2000/svg"><title>drawer</title><g fill="none" fill-rule="evenodd"><path fill="#AAA" d="M0 0h65v38H0z"/><path d="M0 2h1v36H0V2zm0-2h65v2H0V0zm6 6h51v22H6z" fill="#FFF"/><path fill="#000" d="M27 14h3v4h-3zm3 0h6v2h-6zm1 2h1v2h-1zm2 0h1v2h-1zm2 0h1v2h-1zm3-2h1v6h-1zm-14 0h1v6h-1zm1 6h13v2H25zm-14 4h44v2H11zm43-12h1v12h-1zM8 8h47v2H8V8zm0 2h2v2H8v-2zm0 2h1v14H8V12zm49-4h1v22h-1z"/><path fill="#000" d="M8 28h50v2H8z"/><path d="M64.5 38h.5V2h-1v34H1v2h63.5z" fill="#000"/></g></svg>