<svg width="85" height="44" viewBox="0 0 85 44" xmlns="http://www.w3.org/2000/svg"><path fill="#AAA" fill-rule="evenodd" d="M0 0h85v44H0z"/><path d="M74 9h7v28H10v-4H5V5h69v4zM4 7h1v24H4V7zm70 0h1v2h-1V7z" fill-rule="evenodd"/><path fill="#FFF" fill-rule="evenodd" d="M5 7h69v24H5z"/><path d="M62.5 25h.5V11h-1v12H11v2h51.5zM8 9h2v2H8V9zm0 2h1v18H8V11zm1 16h60v2H9v-2zM67 9h2v2h-2V9zm1 2h1v16h-1V11zm-7-2h2v2h-2V9zM11 9h1v14h-1V9zm1 0h1v2h-1V9z" fill="#AAA" fill-rule="evenodd"/><path d="M43 15h4v2h-4v-2zm1 2h4v2h-4v-2zm1 2h6v2h-6v-2zm4-2h3v2h-3v-2zm-1-2h5v2h-5v-2zm2-2h4v2h-4v-2zm1-2h4v2h-4v-2zm5 0h1v2h-1v-2zm-1 2h1v2h-1v-2zm-1 2h1v2h-1v-2zm-1 2h1v2h-1v-2zm-1 2h1v2h-1v-2zm-36-8h5v2h-5v-2zm0 4h5v2h-5v-2zm2 2h1v2h-1v-2zm-3 0h1v2h-1v-2zm0-4h1v2h-1v-2zm0-4h1v2h-1V9zm3 0h1v2h-1V9zm3 0h1v2h-1V9zm0 4h1v2h-1v-2zm0 4h1v2h-1v-2z" fill-rule="evenodd"/><path fill="#6687BA" fill-rule="evenodd" d="M16 13h5v2h-5z"/><g fill="none" fill-rule="evenodd"><path d="M0 0h85v2H0V0zm0 2h1v40H0V2z" fill="#000"/><path d="M0 42h85v2H0v-2zM84 2h1v40h-1V2z" fill="#FFF"/></g></svg>