<svg width="32" height="32" viewBox="0 0 32 32" xmlns="http://www.w3.org/2000/svg"><title>clock</title><g fill="none" fill-rule="evenodd"><path d="M2 16h2v6H2v-6zm2-4h2v14H4V12zm2-2h4v18H6V10zm4-2h10v22H10V8zm10 2h4v18h-4V10zm4 2h2v14h-2V12zm2 4h2v6h-2v-6z" fill="#EEC"/><path d="M18 6V4h-2v2h-2v2h8V6h-4zm-6-6h2v8h-2V0zm2 0h6v4h-6V0zm6 8h6v2h-6V8zm4 2h4v2h-4v-2zm2 2h4v4h-4v-4zm2 4h4v6h-4v-6zm-2 6h4v4h-4v-4zm-2 4h4v2h-4v-2zm-4 2h6v2h-6v-2zm-10 2h12v2H10v-2zm-4-2h4v2H6v-2zm-2-2h2v2H4v-2zm-2-4h2v4H2v-4zm-2-6h2v6H0v-6zm2-4h2v4H2v-4zm2-2h2v2H4v-2zm2-2h4v2H6V8zm4-2h2v2h-2V6zm0-4h2v2h-2V2z" fill="#000"/><path d="M16 16h2v2h-2v-2zm2-2h2v2h-2v-2zm2-2h2v2h-2v-2zm2-2h2v2h-2v-2z" fill="#E44"/><path d="M10 0h2v2h-2V0zm4 4h2v2h-2V4z" fill="#EEC"/><path fill="#000" d="M14 18h2v2h-2z"/></g></svg>