<svg width="60" height="48" viewBox="0 0 60 48" xmlns="http://www.w3.org/2000/svg"><title>shell</title><g fill="none" fill-rule="evenodd"><path fill="#AAA" d="M1 2h58v44H1z"/><path d="M0 0h60v2H0V0zm0 2h1v46H0V2zm4 4h51v2H4V6zm47 2h1v4h-1V8zm-5 0h1v4h-1V8zM9 8h1v4H9V8zM4 8h1v34H4V8zm45 6h1v26h-1V14z" fill="#FFF"/><path d="M59 46H1v2h59v-2h-1v1h1V2h-1v44zm-3.5-4h.5V6h-1v34H5v2h50.5zM9 20h1v2H9v-2zm5-2h2v2h-2v-2zm2 2h2v2h-2v-2zm2 2h2v2h-2v-2zm-2 2h2v2h-2v-2zm-2 2h2v2h-2v-2zM8 8h1v4H8V8zm37 0h1v4h-1V8zm5 0h1v4h-1V8zM5 12h50v2H5v-2zm1 2h1v26H6V14zm4 4h2v10h-2V18z" fill="#000"/></g></svg>