<svg width="71" height="70" viewBox="0 0 71 70" xmlns="http://www.w3.org/2000/svg"><title>trash</title><g fill="none" fill-rule="evenodd"><path fill="#AAA" d="M1 2h70v68H1z"/><path d="M70.5 70h.5V2h-1v66H1v2h69.5zM25 56v-2h-1v2h-1v2h3v-2h-1zm-1 6h34v2H24v-2zm-7-46h37v2H17v-2zm11-2h3v2h-3v-2zm2-2h9v2h-9v-2zm8 2h3v2h-3v-2zm-22 4h2v2h-2v-2zm-1 2h2v4h-2v-4zm2 2h39v2H17v-2zm36-2h3v2h-3v-2zm-1-2h3v2h-3v-2zm1 6h2v14h-2V24zm-37 0h2v12h-2V24zm1 12h2v14h-2V36zm1 14h2v8h-2v-8zm0 8h3v2h-3v-2zm1 2h44v2H19v-2zm30-2h14v2H49v-2zm1-2h7v2h-7v-2zm1-10h2v10h-2V46zm1-14h1v14h-1V32zm1 6h1v12h-1V38zM40 18h1v2h-1v-2zm2 0h1v2h-1v-2zm2 0h1v2h-1v-2zm2 0h1v2h-1v-2zm-1 2h1v2h-1v-2zm2 0h1v2h-1v-2zm1-2h1v2h-1v-2zm1 2h1v2h-1v-2zm1-2h1v2h-1v-2zm1 2h1v2h-1v-2zm-1 4h3v2h-3v-2zm1 2h1v6h-1v-6zm1 2h1v2h-1v-2zm-3 2h2v8h-2v-8zm-1 2h1v6h-1v-6zm0 6h2v6h-2v-6zm-1 4h1v2h-1v-2zm0 2h2v6h-2v-6zm0 6h1v6h-1v-6zm-1 2h1v6h-1v-6zm1 6h1v2h-1v-2zm1-2h1v2h-1v-2zm1-2h1v2h-1v-2zm1-2h1v2h-1v-2zm-2 0h1v2h-1v-2zm1-2h1v2h-1v-2zm1-2h1v2h-1v-2zm-1-2h1v2h-1v-2zm1-2h1v2h-1v-2zm1-2h1v2h-1v-2zm-1-2h1v2h-1v-2zm1-2h1v2h-1v-2zm0-4h1v2h-1v-2zM36 24h1v2h-1v-2zm2 0h1v2h-1v-2zm2 0h1v2h-1v-2zm2 0h1v2h-1v-2zm2 0h1v2h-1v-2zm2 0h1v2h-1v-2zm2 0h1v2h-1v-2zm1 2h1v4h-1v-4zm-3 2h3v2h-3v-2zm1-2h1v2h-1v-2zm-2 0h1v2h-1v-2zm-1 2h1v2h-1v-2zm-1 2h1v2h-1v-2zm-1-2h1v2h-1v-2zm3 2h3v2h-3v-2zm0 2h2v10h-2V32zm-1 2h1v2h-1v-2zm-1 2h1v2h-1v-2zm1 2h1v2h-1v-2zm-1 2h1v2h-1v-2zm1 2h2v10h-2V42zm-1 6h1v2h-1v-2zm0-4h1v2h-1v-2zm-1 6h1v2h-1v-2zm1 2h2v4h-2v-4zm1 4h2v2h-2v-2zm1 2h1v2h-1v-2zm-2 0h1v2h-1v-2zm-2 0h1v2h-1v-2zm-2 0h1v2h-1v-2zm1-2h1v2h-1v-2zm2 0h1v2h-1v-2zM21 28h3v2h-3v-2zm-1 2h3v2h-3v-2zm0 2h2v4h-2v-4zm2 2h1v2h-1v-2zm-1 2h2v10h-2V36zm0 10h3v2h-3v-2zm1 2h2v8h-2v-8zm2-18h1v6h-1v-6zm1 4h1v14h-1V34zm0 16h2v2h-2v-2zm1-4h1v4h-1v-4zm0 6h1v2h-1v-2zm7-22h2v26h-2V30zm2 26h2v2h-2v-2zm-1-28h3v2h-3v-2zm1 2h1v2h-1v-2zm2 0h1v8h-1v-8zm-1 8h2v2h-2v-2zm1 2h1v2h-1v-2zm-1 2h2v2h-2v-2zm1 2h1v2h-1v-2zm-1 2h2v2h-2v-2zm1 2h1v2h-1v-2zm-1 2h2v2h-2v-2zm1 2h1v2h-1v-2z" fill="#000"/><path d="M18 18h22v4H18v-4zm-1 2h1v2h-1v-2zm23 0h5v2h-5v-2zm1-2h1v2h-1v-2zm2 0h1v2h-1v-2zm2 0h1v2h-1v-2zm1 2h1v2h-1v-2zm1-2h1v2h-1v-2zm1 2h1v2h-1v-2zm1-2h1v2h-1v-2zm1 2h1v2h-1v-2zm1-2h1v2h-1v-2zm1 2h1v2h-1v-2zm-34 4h2v12h-2V24zm1 12h2v14h-2V36zm2 12h1v12h-1V48zm-1 2h1v8h-1v-8zm2 6h1v4h-1v-4zm1 2h16v2H23v-2zm4-34h6v34h-6V24zm-7 0h7v4h-7v-4zm4 4h3v2h-3v-2zm1 2h2v4h-2v-4zm1 4h1v12h-1V34zm-6-6h1v2h-1v-2zm3 2h1v16h-1V30zm-1 2h1v2h-1v-2zm2 4h1v12h-1V36zm0 12h2v2h-2v-2zm0 2h1v4h-1v-4zm1 2h1v4h-1v-4zm1 2h1v4h-1v-4zm7 2h2v2h-2v-2zm4-2h3v4h-3v-4zm-2-2h2v4h-2v-4zm0-2h1v2h-1v-2zm0-2h2v2h-2v-2zm0-2h1v2h-1v-2zm0-2h2v2h-2v-2zm0-2h1v2h-1v-2zm0-2h2v2h-2v-2zm0-2h1v2h-1v-2zm0-6h2v6h-2v-6zm1-2h1v2h-1v-2zm-3-6h1v6h-1v-6zm1 0h2v4h-2v-4zm2 2h9v2h-9v-2zm1-2h1v2h-1v-2zm2 0h1v2h-1v-2zm2 0h1v2h-1v-2zm2 0h1v2h-1v-2zm2 0h1v2h-1v-2zm1 2h1v2h-1v-2zm1-2h1v2h-1v-2zm1 2h1v2h-1v-2zm1-2h1v2h-1v-2zm1 2h1v4h-1v-4zm2 0h1v2h-1v-2zm-15 2h1v2h-1v-2zm1 0h4v26h-4V28zm5 0h1v2h-1v-2zm2 0h1v2h-1v-2zm-3 2h1v20h-1V30zm1 16h1v2h-1v-2zm0-4h1v2h-1v-2zm1-2h1v2h-1v-2zm-1-2h1v2h-1v-2zm0-6h1v4h-1v-4zm1-2h1v4h-1v-4zm0 6h1v2h-1v-2zm4-6h1v2h-1v-2zm-1 2h1v10h-1V32zm-1 10h1v10h-1V42zm6-12h1v2h-1v-2zm-1 2h1v2h-1v-2zm0 4h1v2h-1v-2zm-1 2h1v2h-1v-2zm1 2h1v2h-1v-2zm-1 2h1v2h-1v-2zm-1 2h1v2h-1v-2zm2 0h1v2h-1v-2zm-1 2h1v2h-1v-2zm-1 2h1v2h-1v-2zm-1 2h1v2h-1v-2zm2 0h1v2h-1v-2zm-1 2h1v2h-1v-2zm-1 2h1v2h-1v-2zm2 0h1v2h-1v-2zm-1 2h1v2h-1v-2zm-1 2h1v2h-1v-2zm-8-4h3v2h-3v-2zm2-2h1v2h-1v-2zm1-2h1v2h-1v-2zm2 2h1v4h-1v-4zm-4 4h1v2h-1v-2zm-1 2h1v2h-1v-2zm2 0h1v2h-1v-2zm1-2h1v2h-1v-2zm1 2h1v2h-1v-2zm2 0h1v2h-1v-2zm1-2h1v2h-1v-2z" fill="#68B"/><path d="M0 0h71v2H0V0zm0 2h1v68H0V2z" fill="#FFF"/></g></svg>