<svg width="40" height="22" xmlns="http://www.w3.org/2000/svg"><g fill="none" fill-rule="evenodd"><path d="M20 0h20v22H20z"/><path fill="#FFF" fill-rule="nonzero" d="M39 0h1v20h-1z"/><path d="M27 6h5v2h-5V6zm0 2h1v8h-1V8zm1 6h4v2h-4v-2zm3-6h1v6h-1V8z" fill="#000" fill-rule="nonzero"/><path fill="#AAA" fill-rule="nonzero" d="M28 8h3v6h-3z"/><path d="M20 0h19v2H20V0zm0 2h1v20h-1V2z" fill="#000" fill-rule="nonzero"/><path d="M38 2h1v20h-1V2zM21 20h17v2H21v-2z" fill="#FFF" fill-rule="nonzero"/><path fill="#000" fill-rule="nonzero" d="M39 20h1v2h-1z"/><g><path d="M0 0h20v22H0z"/><path d="M19 2h1v18h-1V2zM0 0h20v2H0V0zm0 2h1v20H0V2z" fill="#FFF" fill-rule="nonzero"/><path d="M1 20h19v2H1v-2zM18 2h1v18h-1V2zM7 6h5v2H7V6zm0 2h1v8H7V8zm1 6h4v2H8v-2zm3-6h1v6h-1V8z" fill="#000" fill-rule="nonzero"/><path fill="#FFF" fill-rule="nonzero" d="M8 8h3v6H8z"/></g></g></svg>
