<svg width="46" height="62" viewBox="0 0 46 62" xmlns="http://www.w3.org/2000/svg"><title>file_selected</title><g fill="none" fill-rule="evenodd"><path d="M0 0h46v2H0V0zm0 2h1v60H0V2z" fill="#000"/><path fill="#AAA" d="M1 2h43v58H1z"/><path d="M4 6h28v50H4V6zm28 2h2v48h-2V8zm2 2h2v46h-2V10zm2 2h2v44h-2V12zm2 4h2v40h-2V16z" fill="#000"/><path d="M9 36h5v2H9v-2zm0-4h7v2H9v-2zm8 0h4v2h-4v-2zm9 0h1v2h-1v-2zm2 0h3v2h-3v-2zm5 0h3v2h-3v-2zm2-4h1v2h-1v-2zm-14 0h13v2H21v-2zm-9 0h8v2h-8v-2zm-3 0h2v2H9v-2zm0-4h8v2H9v-2zm9 0h10v2H18v-2zm12 0h6v2h-6v-2zm-8-4h2v2h-2v-2zm-10 0h9v2h-9v-2zM30 6h1v10h-1V6zm1 8h8v2h-8v-2zm9 4h1v40h-1V18zM5 56h35v2H5v-2zm28-10h3v2h-3v-2zm-3 0h2v2h-2v-2zm-3 0h2v2h-2v-2zM9 40h2v2H9v-2zm3 0h6v2h-6v-2zm7 0h5v2h-5v-2zm6 0h6v2h-6v-2zm7 0h4v2h-4v-2zm3-4h1v2h-1v-2zm-9 0h8v2h-8v-2zm-6 0h5v2h-5v-2zm-5 0h4v2h-4v-2zm7-4h3v2h-3v-2zm3-12h11v2H25v-2zM44 2h2v60h-2V2zM1 60h43v2H1v-2z" fill="#FFF"/><path d="M11 10h1v2h-1v-2zm1 2h1v2h-1v-2zm1-2h1v2h-1v-2zm-1-2h1v2h-1V8zm2 0h1v2h-1V8z" fill="#AAA"/><path d="M7 12h1v2H7v-2zm1 2h1v2H8v-2zm1-2h1v2H9v-2zm1 2h1v2h-1v-2zm1-2h1v2h-1v-2zm2 0h1v2h-1v-2zm-3-2h1v2h-1v-2zm2 0h1v2h-1v-2zm2 0h1v2h-1v-2zm-3-2h1v2h-1V8zm2 0h1v2h-1V8zm2 0h1v2h-1V8zm-3 6h1v2h-1v-2z" fill="#68B"/><path d="M8 12h1v2H8v-2zm1 2h1v2H9v-2zm1-2h1v2h-1v-2zm1 2h1v2h-1v-2z" fill="#FFF"/></g></svg>
