<?xml version="1.0" encoding="UTF-8"?>
<svg width="171px" height="49px" viewBox="0 0 171 49" version="1.1" xmlns="http://www.w3.org/2000/svg" xmlns:xlink="http://www.w3.org/1999/xlink">
    <!-- Generator: Sketch 49.3 (51167) - http://www.bohemiancoding.com/sketch -->
    <title>Group 2 Copy 2</title>
    <desc>Created with Sketch.</desc>
    <defs></defs>
    <g id="Page-1" stroke="none" stroke-width="1" fill="none" fill-rule="evenodd">
        <g id="Campaign_Yellow_Large" transform="translate(-80.000000, -40.000000)">
            <g id="Group-2" transform="translate(0.000000, 40.000000)">
                <g id="Group-2-Copy-2" transform="translate(80.000000, 0.000000)">
                    <path d="M171,26.5160895 L171,22.8729651 L166.765088,22.8729651 L166.765088,17.304014 C166.765088,15.9157945 166.886037,14.9793174 167.127936,14.4933137 C167.370256,13.9958895 167.836775,13.7476004 168.528335,13.7476004 C169.069868,13.7476004 169.761428,13.9612052 170.602595,14.3892607 L171,14.5973667 L171,10.6073989 C169.951492,10.2026073 169.081247,10 168.390108,10 C166.454076,10 164.978663,10.6128976 163.965133,11.8391159 C163.227637,12.7180677 162.858889,14.2217607 162.858889,16.3497717 L162.858889,22.8729651 L161.475768,22.8729651 L161.475768,26.5160895 L162.858889,26.5160895 L162.858889,39.7705823 L166.765088,39.7705823 L166.765088,26.5160895 L171,26.5160895 Z M146.306111,27.4529896 C147.205013,26.4353004 148.322214,25.9260328 149.659399,25.9260328 C151.077077,25.9260328 152.228834,26.4293787 153.116358,27.4356474 C154.003882,28.4647571 154.447643,29.7717645 154.447643,31.3562465 C154.447643,32.9407286 154.003882,34.247736 153.116358,35.2772686 C152.228834,36.271694 151.065277,36.7691181 149.624842,36.7691181 C148.2767,36.7691181 147.159077,36.2543518 146.271554,35.2252421 C145.407209,34.2075529 144.975247,32.8887021 144.975247,31.2695357 C144.975247,29.7544223 145.418587,28.4820993 146.306111,27.4529896 Z M154.205323,24.8330532 C152.649839,23.2138867 150.892492,22.4043035 148.933703,22.4043035 C146.663059,22.4043035 144.773805,23.2485711 143.264256,24.9375291 C141.754286,26.6260642 140.999512,28.7367331 140.999512,31.2695357 C140.999512,33.8488661 141.754286,36.000141 143.264256,37.7233604 C144.785184,39.4118955 146.709416,40.256163 149.037374,40.256163 C150.880692,40.256163 152.603904,39.5045281 154.205323,38.0008351 L154.205323,39.7705823 L158.111944,39.7705823 L158.111944,22.8729651 L154.205323,22.8729651 L154.205323,24.8330532 Z M125.363336,27.4529896 C126.262238,26.4353004 127.379439,25.9260328 128.716624,25.9260328 C130.13388,25.9260328 131.28606,26.4293787 132.173583,27.4356474 C133.061107,28.4647571 133.504447,29.7717645 133.504447,31.3562465 C133.504447,32.9407286 133.061107,34.247736 132.173583,35.2772686 C131.28606,36.271694 130.122502,36.7691181 128.682067,36.7691181 C127.333925,36.7691181 126.215881,36.2543518 125.328779,35.2252421 C124.464434,34.2075529 124.032472,32.8887021 124.032472,31.2695357 C124.032472,29.7544223 124.475812,28.4820993 125.363336,27.4529896 Z M133.262549,24.8330532 C131.707064,23.2138867 129.949717,22.4043035 127.990507,22.4043035 C125.720284,22.4043035 123.830609,23.2485711 122.32106,24.9375291 C120.81109,26.6260642 120.056737,28.7367331 120.056737,31.2695357 C120.056737,33.8488661 120.81109,36.000141 122.32106,37.7233604 C123.842409,39.4118955 125.766641,40.256163 128.094178,40.256163 C129.937496,40.256163 131.660708,39.5045281 133.262549,38.0008351 L133.262549,39.7705823 L137.169169,39.7705823 L137.169169,22.8729651 L133.262549,22.8729651 L133.262549,24.8330532 Z M108.137119,39.7705823 L112.026461,39.7705823 L112.026461,31.0094032 C112.026461,27.7939113 113.086348,26.1865883 115.206543,26.1865883 C115.909061,26.1865883 116.629699,26.4526425 117.367195,26.9843281 L119.147721,23.4105723 C118.030099,22.7397265 116.958412,22.4043035 115.932661,22.4043035 C115.160608,22.4043035 114.491804,22.5489626 113.927515,22.8382808 C113.374604,23.1157555 112.740779,23.6305218 112.026461,24.3821568 L112.026461,22.8729651 L108.137119,22.8729651 L108.137119,39.7705823 Z M98.5850726,35.1385313 C97.7207275,36.2255892 96.5453699,36.7691181 95.0589997,36.7691181 C93.5722081,36.7691181 92.4082289,36.2315109 91.5670622,35.1558735 C90.7950094,34.1728686 90.408983,32.911966 90.408983,31.3735887 C90.408983,29.8123705 90.7950094,28.5400475 91.5670622,27.5570426 C92.4200288,26.4581413 93.5835866,25.9086906 95.0589997,25.9086906 C96.441699,25.9086906 97.5761783,26.4120365 98.4641233,27.4183053 C99.3394255,28.4013102 99.7777088,29.7142392 99.7777088,31.3562465 C99.7777088,32.8946238 99.3803039,34.1555264 98.5850726,35.1385313 Z M103.511123,22.8729651 L99.6222025,22.8729651 L99.6222025,24.7810266 C98.2159033,23.1965446 96.4526561,22.4043035 94.3328823,22.4043035 C91.9126317,22.4043035 89.9652212,23.3179398 88.4902296,25.1456352 C87.1189087,26.8688546 86.4336697,28.9621813 86.4336697,31.4256152 C86.4336697,33.9588408 87.1707441,36.0695097 88.6461573,37.7580447 C90.109349,39.4237389 91.9876456,40.256163 94.2810469,40.256163 C96.2971498,40.256163 98.0776755,39.463922 99.6222025,37.8794399 L99.6222025,40.2388209 C99.6222025,43.7436309 98.1986248,45.4956129 95.3527337,45.4956129 C93.8082067,45.4956129 92.6328491,44.9694262 91.8262393,43.9170526 C91.4806698,43.4657332 91.2328712,42.824073 91.0832649,41.9912259 L87.1766441,41.9912259 C87.4071642,44.200449 88.2715094,45.9291672 89.7696795,47.1786493 C91.2214927,48.3930241 93.0711323,49 95.3181768,49 C97.9799046,49 100.071443,48.1210481 101.592791,46.3631444 C102.39898,45.4495082 102.940934,44.3565285 103.217389,43.0842055 C103.309682,42.6214657 103.381324,42.0868193 103.43316,41.4794204 C103.484995,40.8720215 103.511123,40.1694522 103.511123,39.3717124 L103.511123,22.8729651 Z M70.7970722,27.4529896 C71.6959743,26.4353004 72.8135965,25.9260328 74.1503604,25.9260328 C75.5676167,25.9260328 76.7197959,26.4293787 77.6073195,27.4356474 C78.4948431,28.4647571 78.9381834,29.7717645 78.9381834,31.3562465 C78.9381834,32.9407286 78.4948431,34.247736 77.6073195,35.2772686 C76.7197959,36.271694 75.5562382,36.7691181 74.1158035,36.7691181 C72.7676611,36.7691181 71.6496174,36.2543518 70.7625152,35.2252421 C69.8981701,34.2075529 69.4662083,32.8887021 69.4662083,31.2695357 C69.4662083,29.7544223 69.9095486,28.4820993 70.7970722,27.4529896 Z M78.6962848,24.8330532 C77.1408007,23.2138867 75.3834535,22.4043035 73.4242431,22.4043035 C71.1540202,22.4043035 69.2643451,23.2485711 67.7547965,24.9375291 C66.2452479,26.6260642 65.4904735,28.7367331 65.4904735,31.2695357 C65.4904735,33.8488661 66.2452479,36.000141 67.7547965,37.7233604 C69.2761451,39.4118955 71.2003771,40.256163 73.5279139,40.256163 C75.3716535,40.256163 77.0944438,39.5045281 78.6962848,38.0008351 L78.6962848,39.7705823 L82.6029056,39.7705823 L82.6029056,22.8729651 L78.6962848,22.8729651 L78.6962848,24.8330532 Z M47.1234557,22.8729651 L55.800621,40.9329306 L64.5464789,22.8729651 L60.1737607,22.8729651 L55.835178,32.3625153 L51.4793168,22.8729651 L47.1234557,22.8729651 Z M33.6647887,27.4183053 C34.5868692,26.4234569 35.7908839,25.9260328 37.2772541,25.9260328 C38.7868027,25.9260328 40.0026173,26.4234569 40.9246978,27.4183053 C41.8345569,28.4013102 42.2901187,29.7142392 42.2901187,31.3562465 C42.2901187,32.9986768 41.8345569,34.3116059 40.9246978,35.2946108 C40.0144172,36.2776157 38.7986026,36.7691181 37.2772541,36.7691181 C35.7677054,36.7691181 34.5523123,36.271694 33.6302318,35.2772686 C32.7313297,34.2942637 32.2820894,32.9580708 32.2820894,31.2695357 C32.2820894,29.6968971 32.7427082,28.4127306 33.6647887,27.4183053 Z M30.8648331,37.6539917 C32.5699235,39.3890546 34.6846401,40.256163 37.2081402,40.256163 C39.7548187,40.256163 41.9036708,39.4063968 43.6555395,37.7060182 C45.3956083,35.9942193 46.2658534,33.87213 46.2658534,31.3389044 C46.2658534,28.8293656 45.4015083,26.7127751 43.672818,24.9895557 C41.9209493,23.2659133 39.7893756,22.4043035 37.2772541,22.4043035 C34.7769325,22.4043035 32.6563158,23.2604145 30.9166685,24.9722135 C29.1765998,26.6835895 28.3063547,28.759997 28.3063547,31.200167 C28.3063547,33.7909179 29.1593213,35.9421928 30.8648331,37.6539917 Z M4.02757015,39.7705823 L4.02757015,21.0165071 L23.4907175,41.4011692 L23.4907175,12.984122 L19.4631474,12.984122 L19.4631474,31.5994599 L0,11.1623483 L0,39.7705823 L4.02757015,39.7705823 Z" id="Fill-1-Copy" fill="#0F293D"></path>
                    <g id="Group" transform="translate(115.000000, 0.000000)" fill="#3C5161">
                        <path d="M18.5015766,9.52860785 C16.2960854,9.76592731 13.7966694,10.0352828 10.8582636,10.1655345 C8.69873778,10.261221 6.86940306,9.8308424 5.32092057,9.07040848 C5.43646637,9.22763789 5.49466098,9.29718977 5.49466098,9.29718977 C10.6600646,17.3647866 22.5680299,14.0971127 28.7075606,13.6962409 C30.4972555,13.4939082 32.3211081,13.4037015 34.1723713,13.4386882 C37.3621103,13.499388 40.4582318,13.9226007 43.4223613,14.6653305 L43.3882036,14.6295007 C41.8979157,13.4336299 39.9644211,12.2908714 37.4464503,11.3858539 C29.1022718,8.38711393 24.6562885,8.86638963 18.5015766,9.52860785 Z" id="Path"></path>
                        <path d="M1.47881163,2.36729315 C1.0339181,1.56723574 0.672942877,0.759590858 0.379861359,0 C10.7397659,10.6157248 22.6586954,-6.14037738 38.5647987,9.55263487 L38.5976913,9.58762157 C38.4488312,9.53071549 38.3046098,9.47212329 38.1515327,9.41732484 C29.3557136,6.25629718 24.4673669,6.78278385 18.2780756,7.44879581 C16.1033685,7.68316458 13.6385319,7.94830479 10.7659113,8.07560581 C6.80319616,8.24758864 3.68135086,6.33048585 1.47881163,2.36729315 Z" id="Path"></path>
                    </g>
                </g>
            </g>
        </g>
    </g>
</svg>