<?xml version="1.0" encoding="UTF-8"?>
<svg width="85px" height="44px" viewBox="0 0 85 44" version="1.1" xmlns="http://www.w3.org/2000/svg" xmlns:xlink="http://www.w3.org/1999/xlink">
    <!-- Generator: Sketch 46.2 (44496) - http://www.bohemiancoding.com/sketch -->
    <title>drive-active</title>
    <desc>Created with Sketch.</desc>
    <defs></defs>
    <g id="Page-1" stroke="none" stroke-width="1" fill="none" fill-rule="evenodd">
        <g id="Artboard" transform="translate(-667.000000, -1012.000000)">
            <g id="drive-active" transform="translate(667.000000, 1012.000000)">
                <rect id="Rectangle-84" fill="#AAAAAA" x="0" y="0" width="85" height="44"></rect>
                <path d="M74,9 L81,9 L81,37 L10,37 L10,33 L5,33 L5,5 L74,5 L74,9 Z M4,7 L5,7 L5,31 L4,31 L4,7 Z M74,7 L75,7 L75,9 L74,9 L74,7 Z" id="Combined-Shape" fill="#000000"></path>
                <rect id="Rectangle-44" fill="#FFFFFF" x="5" y="7" width="69" height="24"></rect>
                <path d="M62.5,25 L11,25 L11,23 L62,23 L62,11 L63,11 L63,25 L62.5,25 Z M8,9 L10,9 L10,11 L8,11 L8,9 Z M8,11 L9,11 L9,29 L8,29 L8,11 Z M9,27 L69,27 L69,29 L9,29 L9,27 Z M67,9 L69,9 L69,11 L67,11 L67,9 Z M68,11 L69,11 L69,27 L68,27 L68,11 Z M61,9 L63,9 L63,11 L61,11 L61,9 Z M11,9 L12,9 L12,23 L11,23 L11,9 Z M12,9 L13,9 L13,11 L12,11 L12,9 Z" id="Combined-Shape" fill="#AAAAAA"></path>
                <path d="M43,15 L47,15 L47,17 L43,17 L43,15 Z M44,17 L48,17 L48,19 L44,19 L44,17 Z M45,19 L51,19 L51,21 L45,21 L45,19 Z M49,17 L52,17 L52,19 L49,19 L49,17 Z M48,15 L53,15 L53,17 L48,17 L48,15 Z M50,13 L54,13 L54,15 L50,15 L50,13 Z M51,11 L55,11 L55,13 L51,13 L51,11 Z M56,11 L57,11 L57,13 L56,13 L56,11 Z M55,13 L56,13 L56,15 L55,15 L55,13 Z M54,15 L55,15 L55,17 L54,17 L54,15 Z M53,17 L54,17 L54,19 L53,19 L53,17 Z M52,19 L53,19 L53,21 L52,21 L52,19 Z" id="Combined-Shape" fill="#000000"></path>
                <path d="M16,11 L21,11 L21,13 L16,13 L16,11 Z M16,15 L21,15 L21,17 L16,17 L16,15 Z M18,17 L19,17 L19,19 L18,19 L18,17 Z M15,17 L16,17 L16,19 L15,19 L15,17 Z M15,13 L16,13 L16,15 L15,15 L15,13 Z M15,9 L16,9 L16,11 L15,11 L15,9 Z M18,9 L19,9 L19,11 L18,11 L18,9 Z M21,9 L22,9 L22,11 L21,11 L21,9 Z M21,13 L22,13 L22,15 L21,15 L21,13 Z M21,17 L22,17 L22,19 L21,19 L21,17 Z" id="Combined-Shape" fill="#000000"></path>
                <rect id="Rectangle-66" fill="#6687BA" x="16" y="13" width="5" height="2"></rect>
                <g id="Group-2" stroke-width="1">
                    <path d="M0,0 L85,0 L85,2 L0,2 L0,0 Z M0,2 L1,2 L1,42 L0,42 L0,2 Z" id="Combined-Shape" fill="#000000"></path>
                    <path d="M0,42 L85,42 L85,44 L0,44 L0,42 Z M84,2 L85,2 L85,42 L84,42 L84,2 Z" id="Combined-Shape" fill="#FFFFFF"></path>
                </g>
            </g>
        </g>
    </g>
</svg>