<?xml version="1.0" encoding="UTF-8"?>
<svg width="85px" height="44px" viewBox="0 0 85 44" version="1.1" xmlns="http://www.w3.org/2000/svg" xmlns:xlink="http://www.w3.org/1999/xlink">
    <!-- Generator: Sketch 46.2 (44496) - http://www.bohemiancoding.com/sketch -->
    <title>drive</title>
    <desc>Created with Sketch.</desc>
    <defs></defs>
    <g id="Page-1" stroke="none" stroke-width="1" fill="none" fill-rule="evenodd">
        <g id="Artboard" transform="translate(-577.000000, -1012.000000)">
            <g id="drive" transform="translate(577.000000, 1012.000000)">
                <rect id="Rectangle" fill="#AAAAAA" x="0" y="0" width="85" height="44"></rect>
                <g id="Group-2" stroke-width="1" transform="translate(5.000000, 8.000000)">
                    <path d="M58.5,18 L7,18 L7,16 L58,16 L58,4 L59,4 L59,18 L58.5,18 Z M4,2 L6,2 L6,4 L4,4 L4,2 Z M4,4 L5,4 L5,22 L4,22 L4,4 Z M5,20 L65,20 L65,22 L5,22 L5,20 Z M63,2 L65,2 L65,4 L63,4 L63,2 Z M64,4 L65,4 L65,20 L64,20 L64,4 Z M57,2 L59,2 L59,4 L57,4 L57,2 Z M7,2 L8,2 L8,16 L7,16 L7,2 Z M8,2 L9,2 L9,4 L8,4 L8,2 Z" id="Combined-Shape" fill="#AAAAAA"></path>
                    <path d="M70,2 L70,0 L1,0 L1,2 L0,2 L0,26 L1,26 L1,28 L70,28 L70,26 L71,26 L71,2 L70,2 Z" id="Combined-Shape" fill="#000000"></path>
                    <rect id="Rectangle-70" fill="#FFFFFF" x="1" y="2" width="69" height="24"></rect>
                    <rect id="Rectangle-66" fill="#000000" x="12" y="8" width="5" height="2"></rect>
                    <path d="M40,10 L41,10 L41,12 L40,12 L40,10 Z M41,12 L42,12 L42,14 L41,14 L41,12 Z M42,14 L43,14 L43,16 L42,16 L42,14 Z M42,10 L43,10 L43,12 L42,12 L42,10 Z M43,12 L44,12 L44,14 L43,14 L43,12 Z M44,14 L45,14 L45,16 L44,16 L44,14 Z M44,10 L45,10 L45,12 L44,12 L44,10 Z M45,12 L46,12 L46,14 L45,14 L45,12 Z M46,14 L47,14 L47,16 L46,16 L46,14 Z M46,10 L47,10 L47,12 L46,12 L46,10 Z M47,12 L48,12 L48,14 L47,14 L47,12 Z M48,14 L49,14 L49,16 L48,16 L48,14 Z M47,8 L48,8 L48,10 L47,10 L47,8 Z M48,10 L49,10 L49,12 L48,12 L48,10 Z M49,12 L50,12 L50,14 L49,14 L49,12 Z M48,6 L49,6 L49,8 L48,8 L48,6 Z M49,8 L50,8 L50,10 L49,10 L49,8 Z M50,10 L51,10 L51,12 L50,12 L50,10 Z M50,6 L51,6 L51,8 L50,8 L50,6 Z M52,6 L53,6 L53,8 L52,8 L52,6 Z M51,8 L52,8 L52,10 L51,10 L51,8 Z" id="Combined-Shape" fill="#000000"></path>
                    <path d="M58.5,20 L7,20 L7,18 L58,18 L58,6 L59,6 L59,20 L58.5,20 Z M4,4 L6,4 L6,6 L4,6 L4,4 Z M4,6 L5,6 L5,24 L4,24 L4,6 Z M5,22 L65,22 L65,24 L5,24 L5,22 Z M63,4 L65,4 L65,6 L63,6 L63,4 Z M64,6 L65,6 L65,22 L64,22 L64,6 Z M57,4 L59,4 L59,6 L57,6 L57,4 Z M7,4 L8,4 L8,18 L7,18 L7,4 Z M8,4 L9,4 L9,6 L8,6 L8,4 Z" id="Combined-Shape" fill="#AAAAAA"></path>
                </g>
                <path d="M0,0 L85,0 L85,2 L0,2 L0,0 Z M0,2 L1,2 L1,42 L0,42 L0,2 Z" id="Combined-Shape" fill="#FFFFFF"></path>
            </g>
        </g>
    </g>
</svg>