<svg width="134" height="120" viewBox="0 0 134 120" xmlns="http://www.w3.org/2000/svg"><title>floppy-disc</title><g fill="none" fill-rule="evenodd"><path d="M102 41h32v1h-32v-1zm20 13h12v66h-12V54zM4 0h10v2H4V0zM2 2h12v2H2V2zM0 4h14v116H0V4zm14 36h2v14h-2V40zm2 2h118v10H16V42zm104 10h14v2h-14v-2zM104 2h2v39h-2V2zm2-2h20v41h-20V0zm20 2h2v39h-2V2zm2 2h2v37h-2V4zm2 2h2v35h-2V6zm2 2h2v33h-2V8z" fill="#203080"/><path d="M16 40h18v2H16v-2zm18 1h2v1h-2v-1zM14 2h20v38H14V2zm4-2h16v2H18V0zm-4 54h108v66H14V54zm2-2h104v2H16v-2zM4 110h6v4H4z" fill="#202060"/><path d="M102 41h2V0H34v41h2v1h66v-1z" fill="#948976"/><path fill="#202060" d="M75 8h14v30H75z"/><path d="M16 58h104v62H16V58zm2-4h100v4H18v-4z" fill="#FFF"/><path d="M6 12h2v4H6v-4zm-2-2h6v2H4v-2zm1-2h4v2H5V8zm1-2h2v2H6V6z" fill="#202060"/></g></svg>