<svg width="65" height="38" viewBox="0 0 65 38" xmlns="http://www.w3.org/2000/svg"><title>drawer-active</title><g fill="none" fill-rule="evenodd"><path fill="#AAA" d="M0 0h65v38H0z"/><path d="M1 2h63v34H1z"/><path fill="#000" d="M5 14h53v18H5zm52-6h1v6h-1z"/><path fill="#FFF" d="M6 16h51v14H6z"/><path fill="#000" d="M24 20h1v6h-1zm14 0h1v6h-1zm-13 6h13v2H25zm2-6h9v2h-9zm0 2h3v2h-3zm4 0h1v2h-1zm2 0h1v2h-1zm2 0h1v2h-1zm23-4h1v16h-1V18zm2 4h1v12h-1V22zM10 32h1v2h-1v-2zm2 0h1v2h-1v-2zm2 0h1v2h-1v-2zm2 0h1v2h-1v-2zm2 0h1v2h-1v-2zm2 0h1v2h-1v-2zm2 0h1v2h-1v-2zm2 0h1v2h-1v-2zm2 0h1v2h-1v-2zm2 0h1v2h-1v-2zm2 0h1v2h-1v-2zm2 0h1v2h-1v-2zm2 0h1v2h-1v-2zm2 0h1v2h-1v-2zm2 0h1v2h-1v-2zm2 0h1v2h-1v-2zm2 0h1v2h-1v-2zm2 0h1v2h-1v-2zm2 0h1v2h-1v-2zm2 0h1v2h-1v-2zm2 0h1v2h-1v-2zm2 0h1v2h-1v-2zm2 0h1v2h-1v-2zm2 0h1v2h-1v-2z"/><path fill="#FFF" d="M6 6h51v6H6z"/><path d="M8.98 10h45.04v2H8.98v-2zM8 12h47v2H8v-2zm46.02-2H55v2h-.98v-2z" fill="#D8D8D8"/><path d="M8 8h47v2H8V8zm-1 2h2v2H7v-2zm-1 2h2v2H6v-2z" fill="#000"/><path d="M9 10h47v2H9v-2zm-1 2h49v2H8v-2z" fill="#AAA"/><path d="M9 12h1v2H9v-2zm1-2h1v2h-1v-2zm1 2h1v2h-1v-2zm1-2h1v2h-1v-2zm1 2h1v2h-1v-2zm1-2h1v2h-1v-2zm1 2h1v2h-1v-2zm1-2h1v2h-1v-2zm1 2h1v2h-1v-2zm1-2h1v2h-1v-2zm1 2h1v2h-1v-2zm1-2h1v2h-1v-2zm1 2h1v2h-1v-2zm1-2h1v2h-1v-2zm1 2h1v2h-1v-2zm1-2h1v2h-1v-2zm1 2h1v2h-1v-2zm1-2h1v2h-1v-2zm1 2h1v2h-1v-2zm1-2h1v2h-1v-2zm1 2h1v2h-1v-2zm1-2h1v2h-1v-2zm1 2h1v2h-1v-2zm1-2h1v2h-1v-2zm1 2h1v2h-1v-2zm1-2h1v2h-1v-2zm1 2h1v2h-1v-2zm1-2h1v2h-1v-2zm1 2h1v2h-1v-2zm1-2h1v2h-1v-2zm1 2h1v2h-1v-2zm1-2h1v2h-1v-2zm1 2h1v2h-1v-2zm1-2h1v2h-1v-2zm1 2h1v2h-1v-2zm1-2h1v2h-1v-2zm1 2h1v2h-1v-2zm1-2h1v2h-1v-2zm1 2h1v2h-1v-2zm1-2h1v2h-1v-2zm1 2h1v2h-1v-2zm1-2h1v2h-1v-2zm1 2h1v2h-1v-2zm1-2h1v2h-1v-2zm1 2h1v2h-1v-2zm2 0h1v2h-1v-2zm-1-2h1v2h-1v-2z" fill="#6687BA"/><path d="M56 12h1v2h-1v-2zm-1-2h1v2h-1v-2zM0 0h65v2H0V0zm0 2h1v36H0V2z" fill="#000"/><path d="M1 36h63v2H1v-2zM64 2h1v36h-1V2z" fill="#FFF"/></g></svg>