<svg width="85" height="44" viewBox="0 0 85 44" xmlns="http://www.w3.org/2000/svg"><path fill="#AAA" fill-rule="evenodd" d="M0 0h84v44H0z"/><g fill="none" fill-rule="evenodd"><path d="M63.5 26h.5V12h-1v12H12v2h51.5zM9 10h2v2H9v-2zm0 2h1v18H9V12zm1 16h60v2H10v-2zm58-18h2v2h-2v-2zm1 2h1v16h-1V12zm-7-2h2v2h-2v-2zm-50 0h1v14h-1V10zm1 0h1v2h-1v-2z" fill="#AAA"/><path d="M75 10V8H6v2H5v24h1v2h69v-2h1V10h-1z" fill="#000"/><path fill="#FFF" d="M6 10h69v24H6z"/><path fill="#000" d="M17 16h5v2h-5zm28 2h1v2h-1v-2zm1 2h1v2h-1v-2zm1 2h1v2h-1v-2zm0-4h1v2h-1v-2zm1 2h1v2h-1v-2zm1 2h1v2h-1v-2zm0-4h1v2h-1v-2zm1 2h1v2h-1v-2zm1 2h1v2h-1v-2zm0-4h1v2h-1v-2zm1 2h1v2h-1v-2zm1 2h1v2h-1v-2zm-1-6h1v2h-1v-2zm1 2h1v2h-1v-2zm1 2h1v2h-1v-2zm-1-6h1v2h-1v-2zm1 2h1v2h-1v-2zm1 2h1v2h-1v-2zm0-4h1v2h-1v-2zm2 0h1v2h-1v-2zm-1 2h1v2h-1v-2z"/><path d="M63.5 28h.5V14h-1v12H12v2h51.5zM9 12h2v2H9v-2zm0 2h1v18H9V14zm1 16h60v2H10v-2zm58-18h2v2h-2v-2zm1 2h1v16h-1V14zm-7-2h2v2h-2v-2zm-50 0h1v14h-1V12zm1 0h1v2h-1v-2z" fill="#AAA"/></g><path d="M0 0h85v2H0V0zm0 2h1v40H0V2z" fill="#FFF" fill-rule="evenodd"/><path d="M0 42h85v2H0v-2zM84 0h1v42h-1V0z" fill-rule="evenodd"/></svg>