<?xml version="1.0" encoding="UTF-8"?>
<svg width="347px" height="236px" viewBox="0 0 347 236" version="1.1" xmlns="http://www.w3.org/2000/svg" xmlns:xlink="http://www.w3.org/1999/xlink">
    <!-- Generator: Sketch 49.3 (51167) - http://www.bohemiancoding.com/sketch -->
    <title>Artboard</title>
    <desc>Created with Sketch.</desc>
    <defs></defs>
    <g id="Artboard" stroke="none" stroke-width="1" fill="none" fill-rule="evenodd">
        <g id="window-2" transform="translate(0.000000, -24.000000)" fill-rule="nonzero">
            <path d="M0,2 L0,0 L347,0 L347,2 L325,2 L325,20 L324,20 L324,2 L302,2 L302,20 L301,20 L301,2 L1,2 L1,260 L0,260 L0,2 Z M329,240 L329,22 L330,22 L330,196 L346,196 L346,198 L330,198 L330,218 L346,218 L346,220 L330,220 L330,240 L346,240 L346,242 L330,242 L330,258 L329,258 L329,242 L314,242 L314,258 L313,258 L313,242 L298,242 L298,258 L297,258 L297,242 L4,242 L4,240 L329,240 Z M5,246 L293,246 L293,254 L5,254 L5,246 Z M334,28 L342,28 L342,190 L334,190 L334,28 Z M333,10 L342,10 L342,16 L333,16 L333,10 Z M308,6 L311,6 L311,10 L308,10 L308,6 Z" id="white" fill="#FFFFFF"></path>
            <path d="M342,28 L334,28 L334,190 L342,190 L342,28 Z M343,28 L343,190 L343,194 L333,194 L333,190 L333,28 L333,24 L343,24 L343,28 Z M324,20 L346,20 L346,2 L347,2 L347,258 L347,260 L1,260 L1,258 L312,258 L312,242 L313,242 L313,258 L328,258 L328,242 L329,242 L329,258 L346,258 L346,240 L330,240 L330,238 L346,238 L346,218 L330,218 L330,216 L346,216 L346,22 L4,22 L4,242 L3,242 L3,22 L1,22 L1,20 L300,20 L300,2 L301,2 L301,20 L323,20 L323,2 L324,2 L324,20 Z M295,246 L295,254 L295,256 L5,256 L3,256 L3,244 L5,244 L295,244 L295,246 Z M293,246 L5,246 L5,254 L293,254 L293,246 Z M306,244 L308,244 L308,246 L306,246 L306,244 Z M304,246 L306,246 L306,248 L304,248 L304,246 Z M302,248 L304,248 L304,250 L302,250 L302,248 Z M304,250 L306,250 L306,252 L304,252 L304,250 Z M306,252 L308,252 L308,254 L306,254 L306,252 Z M318,244 L320,244 L320,246 L318,246 L318,244 Z M320,246 L322,246 L322,248 L320,248 L320,246 Z M322,248 L324,248 L324,250 L322,250 L322,248 Z M320,250 L322,250 L322,252 L320,252 L320,250 Z M318,252 L320,252 L320,254 L318,254 L318,252 Z M333,226 L335,226 L335,228 L333,228 L333,226 Z M335,228 L337,228 L337,230 L335,230 L335,228 Z M337,230 L339,230 L339,232 L337,232 L337,230 Z M339,228 L341,228 L341,230 L339,230 L339,228 Z M341,226 L343,226 L343,228 L341,228 L341,226 Z M333,208 L335,208 L335,210 L333,210 L333,208 Z M335,206 L337,206 L337,208 L335,208 L335,206 Z M337,204 L339,204 L339,206 L337,206 L337,204 Z M339,206 L341,206 L341,208 L339,208 L339,206 Z M341,210 L343,210 L343,212 L341,212 L341,210 Z" id="black" fill="#000000"></path>
        </g>
    </g>
</svg>