<svg width="347" height="236" xmlns="http://www.w3.org/2000/svg"><g fill-rule="nonzero" fill="none"><path d="M0-22v-2h347v2h-22v18h-1v-18h-22v18h-1v-18H1v258H0V-22zm329 238V-2h1v174h16v2h-16v20h16v2h-16v20h16v2h-16v16h-1v-16h-15v16h-1v-16h-15v16h-1v-16H4v-2h325zM5 222h288v8H5v-8zM334 4h8v162h-8V4zm-1-18h9v6h-9v-6zm-25-4h3v4h-3v-4z" fill="#FFF"/><path d="M342 4h-8v162h8V4zm1 0v166h-10V0h10v4zm-19-8h22v-18h1v258H1v-2h311v-16h1v16h15v-16h1v16h17v-18h-16v-2h16v-20h-16v-2h16V-2H4v220H3V-2H1v-2h299v-18h1v18h22v-18h1v18zm-29 226v10H3v-12h292v2zm-2 0H5v8h288v-8zm13-2h2v2h-2v-2zm-2 2h2v2h-2v-2zm-2 2h2v2h-2v-2zm2 2h2v2h-2v-2zm2 2h2v2h-2v-2zm12-8h2v2h-2v-2zm2 2h2v2h-2v-2zm2 2h2v2h-2v-2zm-2 2h2v2h-2v-2zm-2 2h2v2h-2v-2zm15-26h2v2h-2v-2zm2 2h2v2h-2v-2zm2 2h2v2h-2v-2zm2-2h2v2h-2v-2zm2-2h2v2h-2v-2zm-8-18h2v2h-2v-2zm2-2h2v2h-2v-2zm2-2h2v2h-2v-2zm2 2h2v2h-2v-2zm2 4h2v2h-2v-2z" fill="#000"/></g></svg>
