<svg width="347" height="260" viewBox="0 0 347 260" xmlns="http://www.w3.org/2000/svg"><title>window-2</title><g fill="none" fill-rule="evenodd"><path d="M5 246h288v8H5v-8zM334 28h8v162h-8V28zM301 2h1v18h-1V2zm23 0h1v18h-1V2zm-27 240h1v16h-1v-16zm16 0h1v16h-1v-16zm17-46h16v2h-16v-2zm0 22h16v2h-16v-2zm-1 24h1v16h-1v-16zm1-2h16v2h-16v-2zm3-230h9v6h-9v-6zm-4 12h1v218h-1V22zM4 242v-2h326v2H4zM0 2V0h347v2H0zm0 0h1v258H0V2zm308 4h3v4h-3V6z" fill="#FFF"/><path d="M346 20V2h1v256h-1V22H1v-2h345zM3 244h2v12H3v-12zm2 0h290v2H5v-2zm0 10h290v2H5v-2zm288-8h2v8h-2v-8zm13-2h2v2h-2v-2zm-2 2h2v2h-2v-2zm-2 2h2v2h-2v-2zm2 2h2v2h-2v-2zm2 2h2v2h-2v-2zm12-8h2v2h-2v-2zm2 2h2v2h-2v-2zm2 2h2v2h-2v-2zm-2 2h2v2h-2v-2zm-2 2h2v2h-2v-2zm-6-10h1v16h-1v-16zm16 0h1v16h-1v-16zm2-4h16v2h-16v-2zm0-22h16v2h-16v-2zM1 258h346v2H1v-2zM4 22v220H3V22h1zm329 204h2v2h-2v-2zm2 2h2v2h-2v-2zm2 2h2v2h-2v-2zm2-2h2v2h-2v-2zm2-2h2v2h-2v-2zm-8-18h2v2h-2v-2zm2-2h2v2h-2v-2zm2-2h2v2h-2v-2zm2 2h2v2h-2v-2zm2 2h2v2h-2v-2zM300 2h1v18h-1V2zm23 0h1v18h-1V2zm10 22h10v4h-10v-4zm0 166h10v4h-10v-4zm0-162h1v162h-1V28zm9 0h1v162h-1V28z" fill="#000"/><path d="M328 4h10v2h-10V4zm10 0h1v4h-1V4zm-6 4h11v2h-11V8zm0 8h11v2h-11v-2zm10-6h1v6h-1v-6zm-10 0h1v6h-1v-6zm-4 2h4v2h-4v-2zm0-6h1v6h-1V6zm-20 4h3v2h-5V6h2v4zm-2 2h1v6h-1v-6zm0-8h13v2h-13V4zm5 2h2v6h-2V6zm-4 10h12v2h-12v-2zm11-10h1v10h-1V6zm15 246h2v2h-2v-2zm2-2h2v2h-2v-2zm2-2h2v2h-2v-2zm2-2h2v2h-2v-2zm2-2h3v2h-3v-2zm2 2h1v10h-1v-10zm-10 8h10v2h-10v-2z" fill="#000"/><path d="M335 252h8v2h-8v-2zm2-2h6v2h-6v-2zm2-2h4v2h-4v-2zm2-2h2v2h-2v-2z" fill="#FFF"/></g></svg>
