<svg width="46" height="22" xmlns="http://www.w3.org/2000/svg"><g fill-rule="nonzero" fill="none"><path d="M23 0h23v2H23V0zm0 2h1v18h-1V2z" fill="#000"/><path d="M23 20h23v2H23v-2zM45 2h1v18h-1V2z" fill="#FFF"/><path fill="#000" d="M38 8V4H27v10h4v4h11V8z"/><path fill="#AAA" d="M32 10h9v6h-9z"/><path fill="#000" d="M37 10h1v2h-1z"/><path d="M28 6h3v6h-3V6zm3 0h6v2h-6V6z" fill="#AAA"/><path fill="#000" d="M32 12h6v2h-6z"/><g><path d="M0 0h23v2H0V0zm0 2h1v18H0V2z" fill="#FFF"/><path d="M0 20h23v2H0v-2zM22 2h1v18h-1V2zm-7 6V4H4v10h4v4h11V8h-4z" fill="#000"/><path fill="#FFF" d="M9 10h9v6H9z"/><path d="M5 6h3v6H5V6zm3 0h6v2H8V6z" fill="#AAA"/></g></g></svg>
