<svg width="52" height="22" xmlns="http://www.w3.org/2000/svg"><g fill-rule="nonzero" fill="none"><path d="M0 0h25v2H0V0zm0 2h2v18H0V2zm0 18h1v2H0v-2z" fill="#FFF"/><path d="M26 22H1v-2h25v2zm0-2h-2V2h2v18zm0-18h-1V0h1v2z" fill="#000"/><path d="M26 0h25v2H26V0zm0 2h2v18h-2V2zm0 18h1v2h-1v-2z" fill="#FFF"/><path d="M52 22H27v-2h25v2zm0-2h-2V2h2v18zm0-18h-1V0h1v2zm-9 2h3v2h-3V4zm-1 2h2v2h-2V6zm-1 2h2v2h-2V8zm-1 2h2v2h-2v-2zm-1 2h2v2h-2v-2zm-4 2h5v2h-5v-2zm1 2h3v2h-3v-2zm-2-4h3v2h-3v-2zm-1-2h3v2h-3v-2z" fill="#000"/></g></svg>
