<?xml version="1.0" standalone="no"?>
<!DOCTYPE svg PUBLIC "-//W3C//DTD SVG 20010904//EN"
 "http://www.w3.org/TR/2001/REC-SVG-20010904/DTD/svg10.dtd">
<svg version="1.0" xmlns="http://www.w3.org/2000/svg"
 width="558.000000pt" height="558.000000pt" viewBox="0 0 558.000000 558.000000"
 preserveAspectRatio="xMidYMid meet">
<metadata>
Created by potrace 1.11, written by Peter Selinger 2001-2013
</metadata>
<g transform="translate(0.000000,558.000000) scale(0.100000,-0.100000)"
fill="#000000" stroke="none">
<path d="M1790 3540 l0 -1250 -250 0 -250 0 0 -250 0 -250 -250 0 -250 0 0
-895 0 -895 1750 0 1750 0 0 895 0 895 -250 0 -250 0 0 250 0 250 -250 0 -250
0 0 250 0 250 250 0 250 0 0 125 0 125 500 0 500 0 0 500 0 500 -500 0 -500 0
0 375 0 375 -1000 0 -1000 0 0 -1250z m2750 0 l0 -250 -250 0 -250 0 0 250 0
250 250 0 250 0 0 -250z m-2400 -2575 l0 -475 -175 0 -175 0 0 475 0 475 175
0 175 0 0 -475z m800 0 l0 -475 -175 0 -175 0 0 475 0 475 175 0 175 0 0 -475z
m-400 -50 l0 -475 -175 0 -175 0 0 475 0 475 175 0 175 0 0 -475z m800 0 l0
-475 -175 0 -175 0 0 475 0 475 175 0 175 0 0 -475z"/>
</g>
</svg>
